<svg id="Capa_1" data-name="Capa 1" xmlns="http://www.w3.org/2000/svg" viewBox="0 0 600 505"><defs><style>.cls-1{opacity:0.26;}.cls-2{fill:#dbdbdb;}.cls-3{fill:none;}</style></defs><title>back</title><g class="cls-1"><path class="cls-2" d="M222.1,131.32C263.6,185.21,256.37,260.1,206,298.59S81,324.6,39.55,270.71,5.28,141.93,55.69,103.44,180.61,77.43,222.1,131.32ZM-17.73,8.09C-153,118.45-157.63,252.7-75.2,359.75s244,121.45,356,36,139.9-244.62,57.48-351.66S98.84-87-17.73,8.09Z"/><path class="cls-2" d="M505.38,275.78a74.46,74.46,0,0,0-90.79,53q-3.18,12.17-7.19,23.26c-10.19,24.69-34,71.42-79.34,107.47-46.72,34.23-98.22,45-124.81,48.41-7.87.63-16,.94-24.43.88a74.11,74.11,0,1,0-1.12,148.22c3.28,0,6.55,0,9.8,0v.68c2.65,0,12.72-.25,28-2,74.69-5.9,141.85-31.16,198.63-74.52,1.59-1.21,3.15-2.47,4.72-3.71s3.24-2.36,4.82-3.57c56.79-43.36,98.72-101.39,123.82-171.69,5.65-14.26,8.49-23.87,9.2-26.42l-.66-.19q1.34-4.67,2.58-9.41A74.09,74.09,0,0,0,505.38,275.78Z"/></g><rect class="cls-3" x="-0.62" y="0.21" width="1379.24" height="504.58"/></svg>