<svg xmlns="http://www.w3.org/2000/svg" viewBox="0 0 700 718.51"><defs><style>.cls-1{opacity:0.3;}.cls-2{fill:#dbdbdb;}</style></defs><title>bg_contacto</title><g id="Layer_2" data-name="Layer 2"><g id="Capa_1" data-name="Capa 1"><g class="cls-1"><path class="cls-2" d="M356.57,185.12c42.05,54.61,34.72,130.5-16.32,169.5S213.59,381,171.59,326.37s-34.73-130.5,16.35-169.5S314.53,130.51,356.57,185.12Zm-243-124.87C-23.53,172.08-28.22,308.12,55.31,416.59s247.25,123.07,360.74,36.48S557.81,205.19,474.3,96.73,231.67-36.11,113.54,60.25Z"/><path class="cls-2" d="M643.62,331.51a75.45,75.45,0,0,0-92,53.7q-3.23,12.33-7.28,23.57c-10.33,25-34.46,72.37-80.4,108.9-47.34,34.69-99.53,45.6-126.47,49.06q-12,1-24.76.89a75.1,75.1,0,0,0-1.13,150.2h9.93v.68a278.65,278.65,0,0,0,28.37-2c75.69-6,143.74-31.58,201.28-75.52,1.61-1.22,3.19-2.5,4.78-3.75s3.28-2.4,4.88-3.62c57.55-43.94,100-102.74,125.47-174,5.73-14.45,8.61-24.19,9.33-26.77l-.67-.19q1.35-4.74,2.61-9.54a75.08,75.08,0,0,0-53.75-91.57Z"/></g></g></g></svg>