<svg id="Capa_1" data-name="Capa 1" xmlns="http://www.w3.org/2000/svg" xmlns:xlink="http://www.w3.org/1999/xlink" viewBox="0 0 200 200"><defs><style>.cls-1{fill:none;}.cls-2{clip-path:url(#clip-path);}.cls-3{fill:url(#Nueva_muestra_de_degradado_1);}.cls-4{fill:url(#Nueva_muestra_de_degradado_1-2);}.cls-5{fill:url(#Nueva_muestra_de_degradado_1-3);}.cls-6{fill:url(#Nueva_muestra_de_degradado_1-4);}.cls-7{fill:url(#Nueva_muestra_de_degradado_1-5);}.cls-8{fill:url(#Nueva_muestra_de_degradado_1-6);}.cls-9{fill:url(#Nueva_muestra_de_degradado_1-7);}.cls-10{fill:url(#Nueva_muestra_de_degradado_1-8);}.cls-11{fill:url(#Nueva_muestra_de_degradado_1-9);}.cls-12{fill:url(#Nueva_muestra_de_degradado_1-10);}.cls-13{fill:url(#Nueva_muestra_de_degradado_1-11);}</style><clipPath id="clip-path"><rect class="cls-1" x="-0.25" y="0.34" width="200.25" height="200.25"/></clipPath><linearGradient id="Nueva_muestra_de_degradado_1" x1="64.7" y1="89.95" x2="124.14" y2="89.95" gradientUnits="userSpaceOnUse"><stop offset="0" stop-color="#e8be46"/><stop offset="1" stop-color="#dc4852"/></linearGradient><linearGradient id="Nueva_muestra_de_degradado_1-2" x1="53.24" y1="105.5" x2="166.69" y2="105.5" xlink:href="#Nueva_muestra_de_degradado_1"/><linearGradient id="Nueva_muestra_de_degradado_1-3" x1="53.2" y1="120.51" x2="196.75" y2="120.51" xlink:href="#Nueva_muestra_de_degradado_1"/><linearGradient id="Nueva_muestra_de_degradado_1-4" x1="58.17" y1="135.3" x2="221.37" y2="135.3" xlink:href="#Nueva_muestra_de_degradado_1"/><linearGradient id="Nueva_muestra_de_degradado_1-5" x1="67.25" y1="150.29" x2="242.26" y2="150.29" xlink:href="#Nueva_muestra_de_degradado_1"/><linearGradient id="Nueva_muestra_de_degradado_1-6" x1="79.53" y1="165.36" x2="260.12" y2="165.36" xlink:href="#Nueva_muestra_de_degradado_1"/><linearGradient id="Nueva_muestra_de_degradado_1-7" x1="94.63" y1="180.46" x2="275.22" y2="180.46" xlink:href="#Nueva_muestra_de_degradado_1"/><linearGradient id="Nueva_muestra_de_degradado_1-8" x1="112.49" y1="195.53" x2="287.51" y2="195.53" xlink:href="#Nueva_muestra_de_degradado_1"/><linearGradient id="Nueva_muestra_de_degradado_1-9" x1="133.38" y1="210.52" x2="296.58" y2="210.52" xlink:href="#Nueva_muestra_de_degradado_1"/><linearGradient id="Nueva_muestra_de_degradado_1-10" x1="158.01" y1="225.31" x2="301.55" y2="225.31" xlink:href="#Nueva_muestra_de_degradado_1"/><linearGradient id="Nueva_muestra_de_degradado_1-11" x1="188.06" y1="240.32" x2="301.51" y2="240.32" xlink:href="#Nueva_muestra_de_degradado_1"/></defs><title>circulo</title><g class="cls-2"><path class="cls-3" d="M89.27,84.81A124.39,124.39,0,0,0,64.7,119.67l59.44-59.44A124.47,124.47,0,0,0,89.27,84.81Z"/><path class="cls-4" d="M154.81,50.37l-100,100q-1.08,5.91-1.6,11.89L166.69,48.78Q160.72,49.29,154.81,50.37Z"/><path class="cls-5" d="M187.55,48.73,53.2,183.08c.25,3.08.62,6.14,1.1,9.2L196.75,49.83C193.69,49.35,190.62,49,187.55,48.73Z"/><path class="cls-6" d="M213.68,53.7,58.17,209.22q1.17,3.87,2.6,7.68L221.37,56.31C218.83,55.35,216.27,54.49,213.68,53.7Z"/><path class="cls-7" d="M235.71,62.78,67.25,231.24c1.17,2.22,2.42,4.4,3.73,6.55L242.26,66.52C240.11,65.2,237.92,64,235.71,62.78Z"/><path class="cls-8" d="M254.52,75.07l-175,175c1.51,1.9,3.07,3.76,4.7,5.59L260.12,79.76Q257.38,77.32,254.52,75.07Z"/><path class="cls-9" d="M270.53,90.17,94.63,266.06q2.75,2.44,5.6,4.69l175-175C273.72,93.86,272.15,92,270.53,90.17Z"/><path class="cls-10" d="M283.77,108,112.49,279.3q3.24,2,6.55,3.74L287.51,114.58Q285.74,111.25,283.77,108Z"/><path class="cls-11" d="M294,128.92,133.38,289.51c2.54,1,5.11,1.82,7.69,2.61L296.58,136.6C295.8,134,294.94,131.45,294,128.92Z"/><path class="cls-12" d="M300.46,153.54,158,296c3.05.48,6.12.84,9.19,1.09L301.55,162.74Q301.18,158.12,300.46,153.54Z"/><path class="cls-13" d="M301.51,183.59,188.06,297q6-.51,11.88-1.59l100-100C300.64,191.54,301.17,187.57,301.51,183.59Z"/></g></svg>