<svg id="Capa_1" data-name="Capa 1" xmlns="http://www.w3.org/2000/svg" viewBox="0 0 200 200"><defs><style>.cls-1{fill:#f4c74f;}</style></defs><title>correo</title><path class="cls-1" d="M101.31,144.74a14.24,14.24,0,0,1,1-1.29Q129,116.75,155.71,90a3.43,3.43,0,0,0,1.08-2.1q.09-29.85,0-59.7c0-.16,0-.32-.07-.72H116.32c-3.19,0-5.26-1.32-6.13-3.87-1.31-3.86,1.39-7.55,5.65-7.61,4.57-.06,9.15,0,13.72,0h31.93c4.65,0,6.84,2.19,6.84,6.83q0,15.09,0,30.17a3.19,3.19,0,0,0,1.05,2.49c4.62,4.56,9.18,9.19,13.8,13.75a7.72,7.72,0,0,1,2.43,5.83q0,45.18,0,90.35c0,11.07-8.08,19.14-19.15,19.14H36.17C25.09,184.58,17,176.5,17,165.43q0-45.17,0-90.34a7.73,7.73,0,0,1,2.44-5.83c4.63-4.55,9.18-9.18,13.8-13.74a3.18,3.18,0,0,0,1-2.5c0-10.05,0-20.11,0-30.16,0-4.65,2.19-6.84,6.84-6.84h45c3.39,0,5.61,1.64,6.25,4.54.83,3.77-1.88,6.93-6,6.94-8.88,0-17.77,0-26.65,0H45.74v1.78q0,29.21,0,58.42a3.66,3.66,0,0,0,.86,2.36q27,27.09,54,54.1ZM37.16,173h128.2l-38.09-38.09c-.28.26-.7.65-1.11,1.05-6.55,6.55-13.17,13-19.6,19.67-3.33,3.44-7,3.89-10.66.07C89.51,149,82.85,142.58,76.32,136a7.14,7.14,0,0,1-.89-1.28ZM174,164.47V88.69l-37.89,37.89ZM28.6,88.64v75.78l37.89-37.88Zm5.54-11.19V71.07L31,74.26ZM168.39,77l2.89-2.83-2.89-2.84Z"/><path class="cls-1" d="M114.21,51.68a22.12,22.12,0,0,0-9.35-3.34,25.83,25.83,0,1,0-5.25,51.37c2.89.2,5.41.93,6.41,4,1.29,4-1.54,7.69-5.89,7.5a36.3,36.3,0,0,1-21.26-7.64c-10-7.78-14.81-18.17-14.61-30.78a37,37,0,0,1,28.59-35c13.33-3.07,25.07.31,34.83,9.68,7.3,7,11.24,15.76,10.58,26.06-.39,6.21-2,12.17-5.89,17.26s-11.06,7.48-16.81,5.77a12.48,12.48,0,0,1-6-4c-2.28.89-4.41,2.08-6.69,2.55C96,96.51,90.4,94,86.08,88.73a24.11,24.11,0,0,1-.66-28.83c4.44-6,12.87-9.43,20.74-6.27.43.17,1.23.33,1.42.12A6.31,6.31,0,0,1,114.21,51.68Zm-7.45,21.67a36,36,0,0,0-1.87-6.16c-1.93-3.85-6.16-4.41-9.31-1.45-4.3,4-4.16,12.49.28,16.71a5,5,0,0,0,7.68-.42C105.63,79.55,106.4,76.64,106.76,73.35ZM117,53.41a31.43,31.43,0,0,1,.92,5.23c.1,8.19,0,16.38,0,24.58,0,2.27,1.08,3,3.18,2.09a4.13,4.13,0,0,0,1.81-1.24,21.88,21.88,0,0,0,2.46-4.4C129.62,68.6,124.37,58.58,117,53.41Z"/><path class="cls-1" d="M95.49,21.8A5.75,5.75,0,0,1,101.11,16a5.87,5.87,0,0,1,5.82,5.77,5.87,5.87,0,0,1-5.74,5.7A5.75,5.75,0,0,1,95.49,21.8Z"/></svg>