<?xml version="1.0" encoding="utf-8"?>
<!-- Generator: Adobe Illustrator 24.0.0, SVG Export Plug-In . SVG Version: 6.00 Build 0)  -->
<svg version="1.1" id="Capa_1" xmlns="http://www.w3.org/2000/svg" xmlns:xlink="http://www.w3.org/1999/xlink" x="0px" y="0px"
	 viewBox="0 0 200 200" style="enable-background:new 0 0 200 200;" xml:space="preserve">
<style type="text/css">
	.st0{fill:#F4C74F;}
</style>
<g>
	<title>correo</title>
	<path class="st0" d="M100.7,145.3c0.3-0.4,0.6-0.8,1-1.2c17.2-17.2,34.3-34.3,51.5-51.5c0.6-0.5,0.9-1.2,1-2
		c0.1-19.2,0.1-38.4,0-57.6c0-0.2,0-0.3-0.1-0.7h-39c-3.1,0-5.1-1.3-5.9-3.7c-1.3-3.7,1.3-7.3,5.4-7.3c4.4-0.1,8.8,0,13.2,0h30.8
		c4.5,0,6.6,2.1,6.6,6.6c0,9.7,0,19.4,0,29.1c0,0.9,0.3,1.8,1,2.4c4.5,4.4,8.9,8.9,13.3,13.3c1.5,1.5,2.4,3.5,2.3,5.6
		c0,29,0,58.1,0,87.1c0,10.7-7.8,18.5-18.5,18.5H37.9c-10.7,0-18.5-7.8-18.5-18.4c0-29,0-58.1,0-87.1c-0.1-2.1,0.8-4.2,2.4-5.6
		c4.5-4.4,8.9-8.9,13.3-13.3c0.7-0.6,1-1.5,1-2.4c0-9.7,0-19.4,0-29.1c0-4.5,2.1-6.6,6.6-6.6H86c3.3,0,5.4,1.6,6,4.4
		c0.8,3.6-1.8,6.7-5.8,6.7c-8.6,0-17.1,0-25.7,0H47.1v1.7c0,18.8,0,37.6,0,56.3c0,0.8,0.3,1.6,0.8,2.3
		c17.4,17.4,34.7,34.8,52.1,52.2L100.7,145.3z M38.8,172.5h123.6l-36.7-36.7c-0.3,0.3-0.7,0.6-1.1,1c-6.3,6.3-12.7,12.5-18.9,19
		c-3.2,3.3-6.8,3.8-10.3,0.1c-6.2-6.5-12.6-12.7-18.9-19c-0.3-0.4-0.6-0.8-0.9-1.2L38.8,172.5z M170.8,164.3V91.2l-36.5,36.5
		L170.8,164.3z M30.6,91.2v73.1l36.5-36.5L30.6,91.2z M35.9,80.4v-6.2l-3,3.1L35.9,80.4z M165.4,80l2.8-2.7l-2.8-2.7V80z"/>
	<path class="st0" d="M113.2,55.5c-2.7-1.7-5.8-2.8-9-3.2c-13.6-1.8-26.2,7.8-28,21.4c-1.8,13.6,7.8,26.2,21.4,28
		c0.5,0.1,1,0.1,1.5,0.1c2.8,0.2,5.2,0.9,6.2,3.9c1.2,3.9-1.5,7.4-5.7,7.2c-7.4-0.2-14.6-2.8-20.5-7.4C69.4,98.1,64.8,88.1,65,75.9
		c0.5-16.2,11.8-30.1,27.6-33.8c12.9-3,24.2,0.3,33.6,9.3c7,6.8,10.8,15.2,10.2,25.1c-0.4,6-1.9,11.7-5.7,16.6
		c-3.8,4.9-10.7,7.2-16.2,5.6c-2.3-0.7-4.3-2-5.8-3.9c-2.2,0.9-4.3,2-6.5,2.5c-6.6,1.4-12-1.1-16.2-6.2c-6.3-8.1-6.6-19.4-0.6-27.8
		c4.3-5.8,12.4-9.1,20-6c0.4,0.2,1.2,0.3,1.4,0.1C108.3,55.6,110.8,54.9,113.2,55.5z M106,76.4c-0.4-2-1-4-1.8-5.9
		c-1.9-3.7-5.9-4.3-9-1.4c-4.1,3.9-4,12,0.3,16.1c1.8,2,4.9,2.1,6.8,0.3c0.2-0.2,0.4-0.4,0.6-0.7C104.9,82.4,105.6,79.6,106,76.4z
		 M115.8,57.2c0.4,1.7,0.7,3.3,0.9,5c0.1,7.9,0,15.8,0,23.7c0,2.2,1,2.9,3.1,2c0.7-0.2,1.3-0.6,1.7-1.2c1-1.3,1.7-2.7,2.4-4.2
		C128,71.8,123,62.2,115.8,57.2z"/>
	<path class="st0" d="M95.2,26.7c0-3,2.4-5.5,5.4-5.6c3.1,0,5.6,2.5,5.6,5.6c-0.1,3-2.5,5.4-5.5,5.5C97.7,32.2,95.2,29.7,95.2,26.7z
		"/>
</g>
</svg>
