<svg xmlns="http://www.w3.org/2000/svg" viewBox="0 0 500 569.04"><defs><style>.cls-1{fill:#f9f9f9;}</style></defs><title>icono-bg</title><g id="Layer_2" data-name="Layer 2"><g id="Capa_1" data-name="Capa 1"><path class="cls-1" d="M293.22,166c18.37,50.73-5.14,105.58-52.48,122.53S140,278,121.67,227.31s5.14-105.59,52.51-122.52S274.86,115.24,293.22,166ZM141.68,15C12.86,65.83-23,166.17,13.49,266.93s155.12,150.6,260.35,113,164.69-151.14,128.21-251.9S252.7-28.73,141.68,15Z"/><path class="cls-1" d="M472.48,343.42a59.07,59.07,0,0,0-81.39,18.17q-5.34,8.43-11,15.84c-13.65,16.21-42.91,45.78-85.86,62.1-43.56,14.6-85.07,10.33-106,6.5-6.1-1.43-12.32-3.15-18.67-5.23A58.79,58.79,0,0,0,133,552.54l7.41,2.36-.17.52a218.14,218.14,0,0,0,21.65,5.24c57.86,13.54,114.7,10.64,168.06-8.44,1.5-.53,3-1.11,4.47-1.67s3-1,4.5-1.53c53.37-19.08,99-52.83,135-99.9,7.71-9.42,12.17-16,13.33-17.75l-.46-.3c1.43-2.14,2.83-4.31,4.22-6.49a58.78,58.78,0,0,0-18.3-81.08Z"/></g></g></svg>