<svg id="Capa_1" data-name="Capa 1" xmlns="http://www.w3.org/2000/svg" viewBox="0 0 118.43 178"><defs><style>.cls-1{fill:#f4c74f;}</style></defs><title>lugar</title><path class="cls-1" d="M53.28,179.24h1.91c5.28,0,10.55-.06,15.82,0a9.18,9.18,0,0,1,3.91.89,4.94,4.94,0,0,1,2.34,5.49,5,5,0,0,1-4.89,4.15c-8.53.08-17.07.1-25.6,0-3.45,0-5.59-2.88-5-6.3q3.95-23.83,7.92-47.65c.6-3.62,2.38-5.11,6.07-5.13,4.66,0,9.32,0,14.31,0-1.39-2.34-2.63-4.39-3.84-6.46-6.75-11.51-12.84-23.32-17.24-36-4.47-12.86-5.64-25.79-.81-38.78C55.77,29,70.4,16.44,91.9,12.8c31.32-5.3,59.93,16.25,64.38,47.79,1.42,10-.7,19.57-4,28.93-4.79,13.71-11.73,26.37-19.17,38.77-.43.7-.86,1.39-1.41,2.3.72,0,1.21.12,1.71.12,4.21,0,8.41,0,12.62,0,3.58,0,5.4,1.52,6,5q4,23.91,7.94,47.83a5.09,5.09,0,0,1-4.93,6.22c-5.68.15-11.37.11-17.06,0a5.21,5.21,0,0,1-.71-10.34,14.55,14.55,0,0,1,2.64-.22c2.83,0,5.66,0,8.68,0-2.12-12.7-4.2-25.18-6.3-37.81-.69,0-1.32-.09-1.94-.09-4.63,0-9.25,0-13.87,0a2.74,2.74,0,0,0-2.6,1.33q-8.91,12.63-18,25.15c-2.15,3-4.36,3.9-6.94,2.72a8.55,8.55,0,0,1-3.18-2.71q-9-12.35-17.78-24.84a3.29,3.29,0,0,0-3.14-1.67c-4.68.12-9.36.08-14,0-1.1,0-1.5.3-1.69,1.44-1.92,11.8-3.92,23.59-5.9,35.38A9.82,9.82,0,0,0,53.28,179.24ZM100.7,157c.53-.63.81-.92,1-1.25,6.4-9.32,13-18.52,19.14-28a216.53,216.53,0,0,0,20-37.6c2.58-6.45,4.84-13,5.17-20,.68-14.67-4.6-26.91-15.64-36.53-10.82-9.43-23.5-12.68-37.56-10.3A43.18,43.18,0,0,0,65.87,39.2C57.42,49.59,54.11,61.48,56.3,74.76c1.28,7.78,4.24,15,7.48,22.14,6.22,13.68,14,26.5,22.28,39C90.76,142.91,95.69,149.79,100.7,157Z" transform="translate(-41.66 -12)"/><path class="cls-1" d="M92.92,190a41.47,41.47,0,0,1-5.26-.54,4.79,4.79,0,0,1-3.56-4.92c0-2.34,1.58-4.71,3.8-4.92a53.27,53.27,0,0,1,9.7-.08,4.9,4.9,0,0,1,4.28,5.24,5.35,5.35,0,0,1-5,5c-1.29.08-2.6,0-3.9,0Z" transform="translate(-41.66 -12)"/><path class="cls-1" d="M117.33,190a38,38,0,0,1-4.91-.42,5,5,0,0,1-3.87-5.06,4.82,4.82,0,0,1,4.19-4.94,48.33,48.33,0,0,1,9.16,0,4.84,4.84,0,0,1,4.39,5.31,5.21,5.21,0,0,1-5.05,5c-1.29.09-2.6,0-3.9,0Z" transform="translate(-41.66 -12)"/><path class="cls-1" d="M139.67,68.1a38.8,38.8,0,1,1-38.65-39A39,39,0,0,1,139.67,68.1Zm-67-.2A28.18,28.18,0,1,0,101,39.77,28.17,28.17,0,0,0,72.69,67.9Z" transform="translate(-41.66 -12)"/></svg>