<?xml version="1.0" encoding="utf-8"?>
<!-- Generator: Adobe Illustrator 24.0.0, SVG Export Plug-In . SVG Version: 6.00 Build 0)  -->
<svg version="1.1" id="Capa_1" xmlns="http://www.w3.org/2000/svg" xmlns:xlink="http://www.w3.org/1999/xlink" x="0px" y="0px"
	 viewBox="0 0 200 200" style="enable-background:new 0 0 200 200;" xml:space="preserve">
<style type="text/css">
	.st0{fill:#F4C74F;}
</style>
<g>
	<title>lugar</title>
	<path class="st0" d="M52.4,178.2h1.9c5.3,0,10.5-0.1,15.8,0c1.4,0,2.7,0.3,3.9,0.9c1.9,1.1,2.9,3.3,2.3,5.5
		c-0.4,2.4-2.5,4.1-4.9,4.1c-8.5,0.1-17.1,0.1-25.6,0c-3.5,0-5.6-2.9-5-6.3c2.6-15.9,5.3-31.8,7.9-47.6c0.6-3.6,2.4-5.1,6.1-5.1
		c4.7,0,9.3,0,14.3,0c-1.4-2.3-2.6-4.4-3.8-6.5c-6.8-11.5-12.8-23.3-17.2-36c-4.5-12.9-5.6-25.8-0.8-38.8C54.9,28,69.5,15.4,91,11.8
		c31.3-5.3,59.9,16.3,64.4,47.8c1.4,10-0.7,19.6-4,28.9c-4.8,13.7-11.7,26.4-19.2,38.8c-0.4,0.7-0.9,1.4-1.4,2.3
		c0.7,0,1.2,0.1,1.7,0.1c4.2,0,8.4,0,12.6,0c3.6,0,5.4,1.5,6,5c2.7,15.9,5.3,31.9,7.9,47.8c0.6,2.7-1.1,5.5-3.8,6.1
		c-0.4,0.1-0.7,0.1-1.1,0.1c-5.7,0.1-11.4,0.1-17.1,0c-2.9-0.1-5.1-2.5-5-5.4c0.1-2.5,1.9-4.5,4.3-5c0.9-0.2,1.8-0.2,2.6-0.2
		c2.8,0,5.7,0,8.7,0c-2.1-12.7-4.2-25.2-6.3-37.8c-0.7,0-1.3-0.1-1.9-0.1c-4.6,0-9.3,0-13.9,0c-1.1-0.1-2.1,0.4-2.6,1.3
		c-5.9,8.4-11.9,16.8-18,25.1c-2.2,3-4.4,3.9-6.9,2.7c-1.3-0.6-2.4-1.6-3.2-2.7c-6-8.2-11.9-16.5-17.8-24.8
		c-0.6-1.1-1.9-1.8-3.1-1.7c-4.7,0.1-9.4,0.1-14,0c-1.1,0-1.5,0.3-1.7,1.4c-1.9,11.8-3.9,23.6-5.9,35.4
		C52.4,177.5,52.4,177.9,52.4,178.2z M99.8,156c0.5-0.6,0.8-0.9,1-1.3c6.4-9.3,13-18.5,19.1-28c7.9-11.8,14.6-24.4,20-37.6
		c2.6-6.4,4.8-13,5.2-20c0.7-14.7-4.6-26.9-15.6-36.5c-10.8-9.4-23.5-12.7-37.6-10.3C81.3,24.1,71.7,29.7,65,38.2
		c-8.5,10.4-11.8,22.3-9.6,35.6c1.3,7.8,4.2,15,7.5,22.1c6.2,13.7,14,26.5,22.3,39C89.9,141.9,94.8,148.8,99.8,156z"/>
	<path class="st0" d="M99.9,189c-1.8-0.1-3.5-0.2-5.3-0.5c-2.2-0.6-3.7-2.6-3.6-4.9c0-2.3,1.6-4.7,3.8-4.9c3.2-0.3,6.5-0.3,9.7-0.1
		c2.6,0.3,4.5,2.6,4.3,5.2c-0.2,2.7-2.3,4.8-5,5c-1.3,0.1-2.6,0-3.9,0L99.9,189z"/>
	<path class="st0" d="M99.9,189c-1.6,0-3.3-0.2-4.9-0.4c-2.3-0.5-4-2.7-3.9-5.1c-0.1-2.5,1.7-4.6,4.2-4.9c3-0.3,6.1-0.3,9.2,0
		c2.7,0.2,4.6,2.6,4.4,5.2c0,0,0,0,0,0.1c-0.1,2.7-2.3,4.9-5.1,5c-1.3,0.1-2.6,0-3.9,0L99.9,189z"/>
	<path class="st0" d="M138.8,67.1c-0.1,21.4-17.6,38.7-39,38.6c-21.4-0.1-38.7-17.6-38.6-39c0.1-21.4,17.5-38.7,38.9-38.6
		C121.6,28.3,138.8,45.7,138.8,67.1z M71.8,66.9c0,15.6,12.6,28.2,28.1,28.2c15.6,0,28.2-12.6,28.2-28.1c0-15.5-12.5-28.1-28-28.2
		c-15.6-0.1-28.2,12.5-28.3,28C71.8,66.8,71.8,66.9,71.8,66.9L71.8,66.9z"/>
</g>
</svg>
