<?xml version="1.0" encoding="utf-8"?>
<!-- Generator: Adobe Illustrator 24.0.0, SVG Export Plug-In . SVG Version: 6.00 Build 0)  -->
<svg version="1.1" id="Capa_1" xmlns="http://www.w3.org/2000/svg" xmlns:xlink="http://www.w3.org/1999/xlink" x="0px" y="0px"
	 viewBox="0 0 200 200" style="enable-background:new 0 0 200 200;" xml:space="preserve">
<style type="text/css">
	.st0{fill:#F4C74F;}
</style>
<g>
	<path class="st0" d="M50.7,161.2c-2.6-4.5-2.6-9.2-2.6-13.9c0-32.6,0-65.3,0-97.9c0-11.9,8.1-19.9,20-19.9c27.5,0,55,0,82.5,0
		c11.9-0.1,19.9,8,19.9,19.9c0,16.6,0,33.2,0,49.8c0,2.2-0.6,4.1-2.8,5c-3.1,1.3-6.2-0.6-6.6-4.1c0-0.5,0-1,0-1.5
		c0-16.5,0-33,0-49.6c0-6.5-3.8-10.3-10.3-10.3c-21.9,0-43.8,0-65.7,0c-0.5,0-1,0-1.5,0c0,0.2-0.1,0.3,0,0.4
		c1.9,3.6,2.3,7.5,2.3,11.5c0,33.4,0,66.9,0,100.3c0,8.7-5,16-12.8,18.4c-2.1,0.6-4.3,1-6.5,1c-5.9,0.1-11.9,0.1-17.8,0
		c-11.1,0-19.3-8.3-19.3-19.3c0-34.2,0-68.4,0-102.6c0-8.1,4.8-15.3,12-17.9c2.8-1,5.5-0.1,6.4,2.3c1.1,2.7-0.1,5.1-3,6.4
		c-3.8,1.7-6,4.7-6,8.9c0,34.4,0,68.7,0,103.1c0,5.7,4,9.7,9.7,9.7C49.1,161.2,49.7,161.2,50.7,161.2z M76.4,100
		c0-17.2,0-34.4,0-51.6c0-6.3-5.7-10.8-11.8-9.3c-4.2,1-7,4.8-7,9.5c0,18.2,0,36.4,0,54.6c0,16.2,0,32.4,0,48.5
		c0,6.3,5.7,10.7,11.7,9.2c4.2-1,7.1-4.8,7.1-9.4C76.4,134.3,76.4,117.1,76.4,100z"/>
	<path class="st0" d="M123.4,88.2c-7.5,0-15.1,0-22.6,0c-3.8,0-5.6-1.8-5.6-5.6c0-8,0-16.1,0-24.1c0-3.8,1.8-5.6,5.6-5.6
		c15.1,0,30.2,0,45.3,0c3.8,0,5.6,1.8,5.6,5.6c0,8,0,16.1,0,24.1c0,3.8-1.8,5.6-5.6,5.6C138.5,88.2,131,88.2,123.4,88.2z
		 M104.7,78.7c12.6,0,25,0,37.5,0c0-5.5,0-10.9,0-16.3c-12.5,0-25,0-37.5,0C104.7,67.9,104.7,73.2,104.7,78.7z"/>
	<path class="st0" d="M122.9,170.6c-9.8,0-19.5,0-29.3,0c-1.7,0-3.3-0.3-4.4-1.8c-1.1-1.5-1.3-3.2-0.5-5s2.3-2.4,4.1-2.6
		c0.5-0.1,1,0,1.5,0c18.8,0,37.6-0.1,56.5,0.1c6,0.1,10.5-4.6,10.4-10.4c-0.2-11.2-0.1-22.4-0.1-33.7c0-1.7,0.3-3.3,1.8-4.4
		s3.1-1.3,4.8-0.5c1.8,0.8,2.5,2.3,2.7,4.1c0,0.3,0,0.7,0,1c0,11.3,0,22.5,0,33.8c0,11.2-8.2,19.4-19.4,19.4
		C141.7,170.6,132.3,170.6,122.9,170.6z"/>
	<path class="st0" d="M109.3,102.4c0,2.5-2.2,4.7-4.7,4.7s-4.7-2.2-4.7-4.7s2.2-4.7,4.7-4.7C107.2,97.7,109.3,99.9,109.3,102.4z"/>
	<path class="st0" d="M123.4,107c-2.5,0-4.7-2.2-4.7-4.7s2.2-4.7,4.7-4.7s4.7,2.2,4.7,4.7C128.1,104.9,125.9,107.1,123.4,107z"/>
	<path class="st0" d="M142.3,107c-2.5,0-4.7-2.1-4.7-4.7c0-2.5,2.1-4.7,4.7-4.7c2.5,0,4.7,2.1,4.7,4.7
		C147,104.8,144.8,107,142.3,107z"/>
	<path class="st0" d="M99.9,121c0.1-2.6,2.3-4.7,4.8-4.6s4.7,2.3,4.6,4.8c-0.1,2.5-2.3,4.7-4.8,4.6C101.9,125.8,99.8,123.5,99.9,121
		z"/>
	<path class="st0" d="M128.1,121.2c0,2.5-2.2,4.7-4.7,4.7s-4.7-2.2-4.7-4.7s2.2-4.7,4.7-4.7C126,116.5,128.1,118.7,128.1,121.2z"/>
	<path class="st0" d="M142.2,125.9c-2.5,0-4.7-2.2-4.7-4.7s2.2-4.7,4.7-4.7s4.7,2.2,4.7,4.7S144.8,125.9,142.2,125.9z"/>
	<path class="st0" d="M109.3,140c0,2.5-2.2,4.7-4.7,4.7s-4.7-2.2-4.7-4.7s2.2-4.7,4.7-4.7C107.2,135.3,109.3,137.5,109.3,140z"/>
	<path class="st0" d="M128.1,140c0,2.5-2.2,4.7-4.7,4.7s-4.7-2.2-4.7-4.7s2.2-4.7,4.7-4.7C126,135.3,128.2,137.5,128.1,140z"/>
	<path class="st0" d="M147,140c0,2.5-2.2,4.7-4.7,4.7s-4.7-2.2-4.7-4.7s2.2-4.7,4.7-4.7C144.8,135.3,147,137.5,147,140z"/>
</g>
</svg>
