<?xml version="1.0" encoding="utf-8"?>
<!-- Generator: Adobe Illustrator 22.0.1, SVG Export Plug-In . SVG Version: 6.00 Build 0)  -->
<svg version="1.1" id="Capa_1" xmlns="http://www.w3.org/2000/svg" xmlns:xlink="http://www.w3.org/1999/xlink" x="0px" y="0px"
	 viewBox="0 0 200 200" style="enable-background:new 0 0 200 200;" xml:space="preserve">
<style type="text/css">
	.st0{fill:#F4C74F;}
</style>
<g>
	<path class="st0" d="M52.2,161.8c-2.6-4.5-2.6-9.2-2.6-13.9c0-32.6,0-65.3,0-97.9c0-11.9,8.1-19.9,20-19.9c27.5,0,55,0,82.5,0
		C164,30,172,38.1,172,50c0,16.6,0,33.2,0,49.8c0,2.2-0.6,4.1-2.8,5c-3.1,1.3-6.2-0.6-6.6-4.1c0-0.5,0-1,0-1.5c0-16.5,0-33,0-49.6
		c0-6.5-3.8-10.3-10.3-10.3c-21.9,0-43.8,0-65.7,0c-0.5,0-1,0-1.5,0c0,0.2-0.1,0.3,0,0.4c1.9,3.6,2.3,7.5,2.3,11.5
		c0,33.4,0,66.9,0,100.3c0,8.7-5,16-12.8,18.4c-2.1,0.6-4.3,1-6.5,1c-5.9,0.1-11.9,0.1-17.8,0c-11.1,0-19.3-8.3-19.3-19.3
		c0-34.2,0-68.4,0-102.6c0-8.1,4.8-15.3,12-17.9c2.8-1,5.5-0.1,6.4,2.3c1.1,2.7-0.1,5.1-3,6.4c-3.8,1.7-6,4.7-6,8.9
		c0,34.4,0,68.7,0,103.1c0,5.7,4,9.7,9.7,9.7C50.6,161.8,51.2,161.8,52.2,161.8z M77.9,100.6c0-17.2,0-34.4,0-51.6
		c0-6.3-5.7-10.8-11.8-9.3c-4.2,1-7,4.8-7,9.5c0,18.2,0,36.4,0,54.6c0,16.2,0,32.4,0,48.5c0,6.3,5.7,10.7,11.7,9.2
		c4.2-1,7.1-4.8,7.1-9.4C77.9,134.9,77.9,117.7,77.9,100.6z"/>
	<path class="st0" d="M124.9,88.8c-7.5,0-15.1,0-22.6,0c-3.8,0-5.6-1.8-5.6-5.6c0-8,0-16.1,0-24.1c0-3.8,1.8-5.6,5.6-5.6
		c15.1,0,30.2,0,45.3,0c3.8,0,5.6,1.8,5.6,5.6c0,8,0,16.1,0,24.1c0,3.8-1.8,5.6-5.6,5.6C140,88.8,132.5,88.8,124.9,88.8z
		 M106.2,79.3c12.6,0,25,0,37.5,0c0-5.5,0-10.9,0-16.3c-12.5,0-25,0-37.5,0C106.2,68.5,106.2,73.8,106.2,79.3z"/>
	<path class="st0" d="M124.4,171.2c-9.8,0-19.5,0-29.3,0c-1.7,0-3.3-0.3-4.4-1.8c-1.1-1.5-1.3-3.2-0.5-5c0.8-1.8,2.3-2.4,4.1-2.6
		c0.5-0.1,1,0,1.5,0c18.8,0,37.6-0.1,56.5,0.1c6,0.1,10.5-4.6,10.4-10.4c-0.2-11.2-0.1-22.4-0.1-33.7c0-1.7,0.3-3.3,1.8-4.4
		c1.5-1.1,3.1-1.3,4.8-0.5c1.8,0.8,2.5,2.3,2.7,4.1c0,0.3,0,0.7,0,1c0,11.3,0,22.5,0,33.8c0,11.2-8.2,19.4-19.4,19.4
		C143.2,171.2,133.8,171.2,124.4,171.2z"/>
	<path class="st0" d="M110.8,103c0,2.5-2.2,4.7-4.7,4.7c-2.5,0-4.7-2.2-4.7-4.7c0-2.5,2.2-4.7,4.7-4.7
		C108.7,98.3,110.8,100.5,110.8,103z"/>
	<path class="st0" d="M124.9,107.6c-2.5,0-4.7-2.2-4.7-4.7c0-2.5,2.2-4.7,4.7-4.7c2.5,0,4.7,2.2,4.7,4.7
		C129.6,105.5,127.4,107.7,124.9,107.6z"/>
	<path class="st0" d="M143.8,107.6c-2.5,0-4.7-2.1-4.7-4.7c0-2.5,2.1-4.7,4.7-4.7c2.5,0,4.7,2.1,4.7,4.7
		C148.5,105.4,146.3,107.6,143.8,107.6z"/>
	<path class="st0" d="M101.4,121.6c0.1-2.6,2.3-4.7,4.8-4.6c2.5,0.1,4.7,2.3,4.6,4.8c-0.1,2.5-2.3,4.7-4.8,4.6
		C103.4,126.4,101.3,124.1,101.4,121.6z"/>
	<path class="st0" d="M129.6,121.8c0,2.5-2.2,4.7-4.7,4.7c-2.5,0-4.7-2.2-4.7-4.7c0-2.5,2.2-4.7,4.7-4.7
		C127.5,117.1,129.6,119.3,129.6,121.8z"/>
	<path class="st0" d="M143.7,126.5c-2.5,0-4.7-2.2-4.7-4.7c0-2.5,2.2-4.7,4.7-4.7c2.5,0,4.7,2.2,4.7,4.7
		C148.4,124.3,146.3,126.5,143.7,126.5z"/>
	<path class="st0" d="M110.8,140.6c0,2.5-2.2,4.7-4.7,4.7c-2.5,0-4.7-2.2-4.7-4.7c0-2.5,2.2-4.7,4.7-4.7
		C108.7,135.9,110.8,138.1,110.8,140.6z"/>
	<path class="st0" d="M129.6,140.6c0,2.5-2.2,4.7-4.7,4.7c-2.5,0-4.7-2.2-4.7-4.7c0-2.5,2.2-4.7,4.7-4.7
		C127.5,135.9,129.7,138.1,129.6,140.6z"/>
	<path class="st0" d="M148.5,140.6c0,2.5-2.2,4.7-4.7,4.7c-2.5,0-4.7-2.2-4.7-4.7c0-2.5,2.2-4.7,4.7-4.7
		C146.3,135.9,148.5,138.1,148.5,140.6z"/>
</g>
</svg>
