<svg id="Capa_1" data-name="Capa 1" xmlns="http://www.w3.org/2000/svg" xmlns:xlink="http://www.w3.org/1999/xlink" viewBox="0 0 600 505"><defs><style>.cls-1{fill:none;}.cls-2{fill:url(#Nueva_muestra_de_degradado_1);}.cls-3{fill:url(#Nueva_muestra_de_degradado_1-2);}.cls-4{fill:url(#Nueva_muestra_de_degradado_1-3);}.cls-5{fill:url(#Nueva_muestra_de_degradado_1-4);}.cls-6{fill:url(#Nueva_muestra_de_degradado_1-5);}.cls-7{fill:url(#Nueva_muestra_de_degradado_1-6);}.cls-8{fill:url(#Nueva_muestra_de_degradado_1-7);}.cls-9{fill:url(#Nueva_muestra_de_degradado_1-8);}.cls-10{fill:url(#Nueva_muestra_de_degradado_1-9);}.cls-11{fill:url(#Nueva_muestra_de_degradado_1-10);}.cls-12{fill:url(#Nueva_muestra_de_degradado_1-11);}.cls-13{fill:url(#Nueva_muestra_de_degradado_1-12);}</style><linearGradient id="Nueva_muestra_de_degradado_1" x1="106.4" y1="104.79" x2="208.39" y2="104.79" gradientUnits="userSpaceOnUse"><stop offset="0" stop-color="#e8be46"/><stop offset="1" stop-color="#dc4852"/></linearGradient><linearGradient id="Nueva_muestra_de_degradado_1-2" x1="86.75" y1="131.48" x2="281.4" y2="131.48" xlink:href="#Nueva_muestra_de_degradado_1"/><linearGradient id="Nueva_muestra_de_degradado_1-3" x1="86.68" y1="157.22" x2="332.97" y2="157.22" xlink:href="#Nueva_muestra_de_degradado_1"/><linearGradient id="Nueva_muestra_de_degradado_1-4" x1="95.2" y1="182.61" x2="375.22" y2="182.61" xlink:href="#Nueva_muestra_de_degradado_1"/><linearGradient id="Nueva_muestra_de_degradado_1-5" x1="110.77" y1="208.32" x2="411.06" y2="208.32" xlink:href="#Nueva_muestra_de_degradado_1"/><linearGradient id="Nueva_muestra_de_degradado_1-6" x1="131.86" y1="234.18" x2="441.7" y2="234.18" xlink:href="#Nueva_muestra_de_degradado_1"/><linearGradient id="Nueva_muestra_de_degradado_1-7" x1="157.76" y1="260.09" x2="467.61" y2="260.09" xlink:href="#Nueva_muestra_de_degradado_1"/><linearGradient id="Nueva_muestra_de_degradado_1-8" x1="188.41" y1="285.95" x2="488.69" y2="285.95" xlink:href="#Nueva_muestra_de_degradado_1"/><linearGradient id="Nueva_muestra_de_degradado_1-9" x1="224.25" y1="311.66" x2="504.27" y2="311.66" xlink:href="#Nueva_muestra_de_degradado_1"/><linearGradient id="Nueva_muestra_de_degradado_1-10" x1="266.5" y1="337.04" x2="512.79" y2="337.04" xlink:href="#Nueva_muestra_de_degradado_1"/><linearGradient id="Nueva_muestra_de_degradado_1-11" x1="318.06" y1="362.79" x2="512.72" y2="362.79" xlink:href="#Nueva_muestra_de_degradado_1"/><linearGradient id="Nueva_muestra_de_degradado_1-12" x1="391.08" y1="389.47" x2="493.07" y2="389.47" xlink:href="#Nueva_muestra_de_degradado_1"/></defs><title>circulo</title><rect class="cls-1" x="-0.62" y="0.21" width="1379.24" height="504.58"/><path class="cls-2" d="M148.57,96a213.16,213.16,0,0,0-42.17,59.82l102-102A213.16,213.16,0,0,0,148.57,96Z"/><path class="cls-3" d="M261,36.88,89.48,208.42c-1.24,6.75-2.15,13.56-2.73,20.38L281.4,34.15C274.58,34.73,267.77,35.64,261,36.88Z"/><path class="cls-4" d="M317.19,34.07,86.68,264.59c.43,5.27,1,10.54,1.87,15.78L333,36C327.73,35.13,322.46,34.5,317.19,34.07Z"/><path class="cls-5" d="M362,42.6,95.2,309.43c1.35,4.43,2.83,8.83,4.47,13.18L375.22,47.07Q368.68,44.61,362,42.6Z"/><path class="cls-6" d="M399.82,58.17l-289,289.05q3,5.7,6.42,11.24L411.06,64.59C407.36,62.33,403.62,60.18,399.82,58.17Z"/><path class="cls-7" d="M432.1,79.25,131.86,379.5q3.85,4.89,8,9.6L441.7,87.31Q437,83.11,432.1,79.25Z"/><path class="cls-8" d="M459.56,105.16,157.76,407q4.71,4.19,9.61,8.05L467.61,114.76Q463.76,109.87,459.56,105.16Z"/><path class="cls-9" d="M482.28,135.81,188.41,429.68q5.53,3.39,11.24,6.41l289-289Q485.68,141.35,482.28,135.81Z"/><path class="cls-10" d="M499.8,171.65,224.25,447.2c4.36,1.64,8.76,3.12,13.19,4.47L504.27,184.84C502.92,180.4,501.44,176,499.8,171.65Z"/><path class="cls-11" d="M510.92,213.9,266.5,458.31q7.86,1.23,15.78,1.88L512.79,229.68Q512.15,221.76,510.92,213.9Z"/><path class="cls-12" d="M512.72,265.46,318.06,460.12q10.24-.89,20.39-2.74L510,285.85Q511.84,275.71,512.72,265.46Z"/><path class="cls-13" d="M391.08,440.47a214.61,214.61,0,0,0,102-102Z"/></svg>