<svg xmlns="http://www.w3.org/2000/svg" xmlns:xlink="http://www.w3.org/1999/xlink" viewBox="0 0 268.62 268.62"><defs><style>.cls-1{fill:url(#Nueva_muestra_de_degradado_1);}.cls-2{fill:url(#Nueva_muestra_de_degradado_1-2);}.cls-3{fill:url(#Nueva_muestra_de_degradado_1-3);}.cls-4{fill:url(#Nueva_muestra_de_degradado_1-4);}.cls-5{fill:url(#Nueva_muestra_de_degradado_1-5);}.cls-6{fill:url(#Nueva_muestra_de_degradado_1-6);}.cls-7{fill:url(#Nueva_muestra_de_degradado_1-7);}.cls-8{fill:url(#Nueva_muestra_de_degradado_1-8);}.cls-9{fill:url(#Nueva_muestra_de_degradado_1-9);}.cls-10{fill:url(#Nueva_muestra_de_degradado_1-10);}.cls-11{fill:url(#Nueva_muestra_de_degradado_1-11);}.cls-12{fill:url(#Nueva_muestra_de_degradado_1-12);}</style><linearGradient id="Nueva_muestra_de_degradado_1" x1="12.43" y1="44.58" x2="76.73" y2="44.58" gradientUnits="userSpaceOnUse"><stop offset="0" stop-color="#e8be46"/><stop offset="1" stop-color="#dc4852"/></linearGradient><linearGradient id="Nueva_muestra_de_degradado_1-2" x1="0.05" y1="61.4" x2="122.75" y2="61.4" xlink:href="#Nueva_muestra_de_degradado_1"/><linearGradient id="Nueva_muestra_de_degradado_1-3" x1="0" y1="77.63" x2="155.26" y2="77.63" xlink:href="#Nueva_muestra_de_degradado_1"/><linearGradient id="Nueva_muestra_de_degradado_1-4" x1="5.37" y1="93.63" x2="181.89" y2="93.63" xlink:href="#Nueva_muestra_de_degradado_1"/><linearGradient id="Nueva_muestra_de_degradado_1-5" x1="15.19" y1="109.84" x2="204.49" y2="109.84" xlink:href="#Nueva_muestra_de_degradado_1"/><linearGradient id="Nueva_muestra_de_degradado_1-6" x1="28.48" y1="126.14" x2="223.8" y2="126.14" xlink:href="#Nueva_muestra_de_degradado_1"/><linearGradient id="Nueva_muestra_de_degradado_1-7" x1="44.81" y1="142.47" x2="240.14" y2="142.47" xlink:href="#Nueva_muestra_de_degradado_1"/><linearGradient id="Nueva_muestra_de_degradado_1-8" x1="64.13" y1="158.78" x2="253.43" y2="158.78" xlink:href="#Nueva_muestra_de_degradado_1"/><linearGradient id="Nueva_muestra_de_degradado_1-9" x1="86.73" y1="174.99" x2="263.24" y2="174.99" xlink:href="#Nueva_muestra_de_degradado_1"/><linearGradient id="Nueva_muestra_de_degradado_1-10" x1="113.36" y1="190.99" x2="268.62" y2="190.99" xlink:href="#Nueva_muestra_de_degradado_1"/><linearGradient id="Nueva_muestra_de_degradado_1-11" x1="145.86" y1="207.22" x2="268.57" y2="207.22" xlink:href="#Nueva_muestra_de_degradado_1"/><linearGradient id="Nueva_muestra_de_degradado_1-12" x1="191.89" y1="224.04" x2="256.18" y2="224.04" xlink:href="#Nueva_muestra_de_degradado_1"/></defs><title>circle_color</title><g id="Layer_2" data-name="Layer 2"><g id="Capa_4" data-name="Capa 4"><path class="cls-1" d="M39,39A134.34,134.34,0,0,0,12.43,76.73l64.3-64.3A134.34,134.34,0,0,0,39,39Z"/><path class="cls-2" d="M109.9,1.77,1.77,109.9Q.6,116.29.05,122.75L122.75.05Q116.3.59,109.9,1.77Z"/><path class="cls-3" d="M145.31,0,0,145.31q.41,5,1.18,9.95L155.26,1.18C152,.67,148.64.27,145.31,0Z"/><path class="cls-4" d="M173.58,5.37,5.37,173.58c.85,2.79,1.79,5.57,2.82,8.31L181.89,8.19C179.15,7.16,176.37,6.22,173.58,5.37Z"/><path class="cls-5" d="M197.4,15.19,15.19,197.4q1.91,3.6,4,7.09L204.49,19.23Q201,17.1,197.4,15.19Z"/><path class="cls-6" d="M217.75,28.48,28.48,217.75c1.62,2.06,3.32,4.08,5.08,6.05L223.8,33.56Q220.85,30.92,217.75,28.48Z"/><path class="cls-7" d="M235.06,44.81,44.81,235.06q3,2.64,6.06,5.08L240.14,50.87Q237.7,47.78,235.06,44.81Z"/><path class="cls-8" d="M249.38,64.13,64.13,249.38q3.5,2.15,7.09,4.05L253.43,71.22Q251.52,67.62,249.38,64.13Z"/><path class="cls-9" d="M260.43,86.73,86.73,260.43Q90.84,262,95,263.24L263.24,95Q262,90.84,260.43,86.73Z"/><path class="cls-10" d="M267.44,113.36,113.36,267.44c3.3.51,6.62.91,10,1.18L268.62,123.31C268.35,120,268,116.66,267.44,113.36Z"/><path class="cls-11" d="M268.57,145.86,145.86,268.57q6.46-.56,12.86-1.72L266.85,158.72Q268,152.33,268.57,145.86Z"/><path class="cls-12" d="M191.89,256.18a135.23,135.23,0,0,0,64.29-64.29Z"/></g></g></svg>