<?xml version="1.0" encoding="utf-8"?>
<!-- Generator: Adobe Illustrator 24.0.0, SVG Export Plug-In . SVG Version: 6.00 Build 0)  -->
<svg version="1.1" id="Capa_1" xmlns="http://www.w3.org/2000/svg" xmlns:xlink="http://www.w3.org/1999/xlink" x="0px" y="0px"
	 viewBox="0 0 425.5 426.3" style="enable-background:new 0 0 425.5 426.3;" xml:space="preserve">
<style type="text/css">
	.st0{fill:url(#SVGID_1_);}
	.st1{fill:url(#SVGID_2_);}
	.st2{fill:url(#SVGID_3_);}
	.st3{fill:url(#SVGID_4_);}
	.st4{fill:url(#SVGID_5_);}
	.st5{fill:url(#SVGID_6_);}
	.st6{fill:url(#SVGID_7_);}
	.st7{fill:url(#SVGID_8_);}
	.st8{fill:url(#SVGID_9_);}
	.st9{fill:url(#SVGID_10_);}
	.st10{fill:url(#SVGID_11_);}
	.st11{fill:url(#SVGID_12_);}
</style>
<title>circulo</title>
<linearGradient id="SVGID_1_" gradientUnits="userSpaceOnUse" x1="19.1" y1="367.32" x2="121.1" y2="367.32" gradientTransform="matrix(1 0 0 -1 0 438.28)">
	<stop  offset="0" style="stop-color:#E8BE46"/>
	<stop  offset="1" style="stop-color:#DC4852"/>
</linearGradient>
<path class="st0" d="M61.3,62.1C43.9,79.5,29.6,99.7,19.1,122l102-102C98.9,30.5,78.6,44.7,61.3,62.1z"/>
<linearGradient id="SVGID_2_" gradientUnits="userSpaceOnUse" x1="-0.55" y1="340.665" x2="194.1" y2="340.665" gradientTransform="matrix(1 0 0 -1 0 438.28)">
	<stop  offset="0" style="stop-color:#E8BE46"/>
	<stop  offset="1" style="stop-color:#DC4852"/>
</linearGradient>
<path class="st1" d="M173.7,3L2.2,174.6c-1.2,6.8-2.2,13.6-2.7,20.4L194.1,0.3C187.3,0.9,180.5,1.8,173.7,3z"/>
<linearGradient id="SVGID_3_" gradientUnits="userSpaceOnUse" x1="-0.62" y1="314.92" x2="245.7" y2="314.92" gradientTransform="matrix(1 0 0 -1 0 438.28)">
	<stop  offset="0" style="stop-color:#E8BE46"/>
	<stop  offset="1" style="stop-color:#DC4852"/>
</linearGradient>
<path class="st2" d="M229.9,0.2L-0.6,230.7c0.4,5.3,1,10.5,1.9,15.8L245.7,2.1C240.4,1.3,235.2,0.6,229.9,0.2z"/>
<linearGradient id="SVGID_4_" gradientUnits="userSpaceOnUse" x1="7.9" y1="289.535" x2="287.92" y2="289.535" gradientTransform="matrix(1 0 0 -1 0 438.28)">
	<stop  offset="0" style="stop-color:#E8BE46"/>
	<stop  offset="1" style="stop-color:#DC4852"/>
</linearGradient>
<path class="st3" d="M274.7,8.7L7.9,275.6c1.3,4.4,2.8,8.8,4.5,13.2L287.9,13.2C283.6,11.6,279.2,10.1,274.7,8.7z"/>
<linearGradient id="SVGID_5_" gradientUnits="userSpaceOnUse" x1="23.52" y1="263.825" x2="323.76" y2="263.825" gradientTransform="matrix(1 0 0 -1 0 438.28)">
	<stop  offset="0" style="stop-color:#E8BE46"/>
	<stop  offset="1" style="stop-color:#DC4852"/>
</linearGradient>
<path class="st4" d="M312.5,24.3l-289,289c2,3.8,4.1,7.5,6.4,11.2L323.8,30.7C320.1,28.5,316.3,26.3,312.5,24.3z"/>
<linearGradient id="SVGID_6_" gradientUnits="userSpaceOnUse" x1="44.56" y1="237.965" x2="354.4" y2="237.965" gradientTransform="matrix(1 0 0 -1 0 438.28)">
	<stop  offset="0" style="stop-color:#E8BE46"/>
	<stop  offset="1" style="stop-color:#DC4852"/>
</linearGradient>
<path class="st5" d="M344.8,45.4L44.6,345.6c2.6,3.3,5.2,6.5,8,9.6L354.4,53.4C351.3,50.7,348.1,48,344.8,45.4z"/>
<linearGradient id="SVGID_7_" gradientUnits="userSpaceOnUse" x1="70.46" y1="212.035" x2="380.31" y2="212.035" gradientTransform="matrix(1 0 0 -1 0 438.28)">
	<stop  offset="0" style="stop-color:#E8BE46"/>
	<stop  offset="1" style="stop-color:#DC4852"/>
</linearGradient>
<path class="st6" d="M372.3,71.3L70.5,373.1c3.1,2.8,6.3,5.5,9.6,8L380.3,80.9C377.7,77.6,375.1,74.4,372.3,71.3z"/>
<linearGradient id="SVGID_8_" gradientUnits="userSpaceOnUse" x1="101.11" y1="186.19" x2="401.35" y2="186.19" gradientTransform="matrix(1 0 0 -1 0 438.28)">
	<stop  offset="0" style="stop-color:#E8BE46"/>
	<stop  offset="1" style="stop-color:#DC4852"/>
</linearGradient>
<path class="st7" d="M395,101.9L101.1,395.8c3.7,2.3,7.4,4.4,11.2,6.4l289-289C399.4,109.4,397.2,105.6,395,101.9z"/>
<linearGradient id="SVGID_9_" gradientUnits="userSpaceOnUse" x1="136.95" y1="160.48" x2="416.97" y2="160.48" gradientTransform="matrix(1 0 0 -1 0 438.28)">
	<stop  offset="0" style="stop-color:#E8BE46"/>
	<stop  offset="1" style="stop-color:#DC4852"/>
</linearGradient>
<path class="st8" d="M412.5,137.8L136.9,413.3c4.4,1.6,8.8,3.1,13.2,4.5L417,151C415.6,146.5,414.1,142.1,412.5,137.8z"/>
<linearGradient id="SVGID_10_" gradientUnits="userSpaceOnUse" x1="179.2" y1="135.095" x2="425.49" y2="135.095" gradientTransform="matrix(1 0 0 -1 0 438.28)">
	<stop  offset="0" style="stop-color:#E8BE46"/>
	<stop  offset="1" style="stop-color:#DC4852"/>
</linearGradient>
<path class="st9" d="M423.6,180L179.2,424.5c5.2,0.8,10.5,1.4,15.8,1.9l230.5-230.5C425.1,190.5,424.4,185.3,423.6,180z"/>
<linearGradient id="SVGID_11_" gradientUnits="userSpaceOnUse" x1="230.76" y1="109.35" x2="425.42" y2="109.35" gradientTransform="matrix(1 0 0 -1 0 438.28)">
	<stop  offset="0" style="stop-color:#E8BE46"/>
	<stop  offset="1" style="stop-color:#DC4852"/>
</linearGradient>
<path class="st10" d="M425.4,231.6L230.8,426.3c6.8-0.6,13.6-1.5,20.4-2.7L422.7,252C423.9,245.2,424.8,238.4,425.4,231.6z"/>
<linearGradient id="SVGID_12_" gradientUnits="userSpaceOnUse" x1="303.78" y1="82.67" x2="405.78" y2="82.67" gradientTransform="matrix(1 0 0 -1 0 438.28)">
	<stop  offset="0" style="stop-color:#E8BE46"/>
	<stop  offset="1" style="stop-color:#DC4852"/>
</linearGradient>
<path class="st11" d="M303.8,406.6c44.8-21.2,80.8-57.2,102-102L303.8,406.6z"/>
</svg>
