<svg id="Capa_1" data-name="Capa 1" xmlns="http://www.w3.org/2000/svg" xmlns:xlink="http://www.w3.org/1999/xlink" viewBox="0 0 400 260"><defs><style>.cls-1{fill:url(#Degradado_sin_nombre_11);}</style><linearGradient id="Degradado_sin_nombre_11" x1="210.05" y1="197.46" x2="210.05" y2="57.06" gradientUnits="userSpaceOnUse"><stop offset="0" stop-color="#d45a6a"/><stop offset="1" stop-color="#e8be46"/></linearGradient></defs><title>Cobertura</title><path class="cls-1" d="M40,62.49a5.43,5.43,0,1,1-5.43-5.43A5.44,5.44,0,0,1,40,62.49Zm44.69-5.43a5.43,5.43,0,1,0,5.43,5.43A5.43,5.43,0,0,0,84.73,57.06Zm50.13,0a5.43,5.43,0,1,0,5.43,5.43A5.43,5.43,0,0,0,134.86,57.06Zm50.12,0a5.43,5.43,0,1,0,5.43,5.43A5.43,5.43,0,0,0,185,57.06Zm50.13,0a5.43,5.43,0,1,0,5.43,5.43A5.43,5.43,0,0,0,235.11,57.06Zm50.13,0a5.43,5.43,0,1,0,5.43,5.43A5.43,5.43,0,0,0,285.24,57.06Zm50.12,0a5.43,5.43,0,1,0,5.43,5.43A5.44,5.44,0,0,0,335.36,57.06Zm50.13,0a5.43,5.43,0,1,0,5.43,5.43A5.43,5.43,0,0,0,385.49,57.06ZM34.61,100.24A5.43,5.43,0,1,0,40,105.67,5.43,5.43,0,0,0,34.61,100.24Zm50.12,0a5.43,5.43,0,1,0,5.43,5.43A5.43,5.43,0,0,0,84.73,100.24Zm50.13,0a5.43,5.43,0,1,0,5.43,5.43A5.43,5.43,0,0,0,134.86,100.24Zm50.12,0a5.43,5.43,0,1,0,5.43,5.43A5.43,5.43,0,0,0,185,100.24Zm50.13,0a5.43,5.43,0,1,0,5.43,5.43A5.43,5.43,0,0,0,235.11,100.24Zm50.13,0a5.43,5.43,0,1,0,5.43,5.43A5.43,5.43,0,0,0,285.24,100.24Zm50.12,0a5.43,5.43,0,1,0,5.43,5.43A5.44,5.44,0,0,0,335.36,100.24Zm50.13,0a5.43,5.43,0,1,0,5.43,5.43A5.43,5.43,0,0,0,385.49,100.24ZM34.61,143.42A5.43,5.43,0,1,0,40,148.85,5.44,5.44,0,0,0,34.61,143.42Zm50.12,0a5.43,5.43,0,1,0,5.43,5.43A5.44,5.44,0,0,0,84.73,143.42Zm50.13,0a5.43,5.43,0,1,0,5.43,5.43A5.44,5.44,0,0,0,134.86,143.42Zm50.12,0a5.43,5.43,0,1,0,5.43,5.43A5.43,5.43,0,0,0,185,143.42Zm50.13,0a5.43,5.43,0,1,0,5.43,5.43A5.44,5.44,0,0,0,235.11,143.42Zm50.13,0a5.43,5.43,0,1,0,5.43,5.43A5.44,5.44,0,0,0,285.24,143.42Zm50.12,0a5.43,5.43,0,1,0,5.43,5.43A5.44,5.44,0,0,0,335.36,143.42Zm50.13,0a5.43,5.43,0,1,0,5.43,5.43A5.44,5.44,0,0,0,385.49,143.42ZM34.61,186.61A5.43,5.43,0,1,0,40,192,5.43,5.43,0,0,0,34.61,186.61Zm50.12,0A5.43,5.43,0,1,0,90.16,192,5.43,5.43,0,0,0,84.73,186.61Zm50.13,0a5.43,5.43,0,1,0,5.43,5.43A5.43,5.43,0,0,0,134.86,186.61Zm50.12,0a5.43,5.43,0,1,0,5.43,5.43A5.43,5.43,0,0,0,185,186.61Zm50.13,0a5.43,5.43,0,1,0,5.43,5.43A5.43,5.43,0,0,0,235.11,186.61Zm50.13,0a5.43,5.43,0,1,0,5.43,5.43A5.43,5.43,0,0,0,285.24,186.61Zm50.12,0a5.43,5.43,0,1,0,5.43,5.43A5.44,5.44,0,0,0,335.36,186.61Zm50.13,0a5.43,5.43,0,1,0,5.43,5.43A5.43,5.43,0,0,0,385.49,186.61Z"/></svg>