<?xml version="1.0" encoding="utf-8"?>
<!-- Generator: Adobe Illustrator 24.0.0, SVG Export Plug-In . SVG Version: 6.00 Build 0)  -->
<svg version="1.1" id="Capa_1" xmlns="http://www.w3.org/2000/svg" xmlns:xlink="http://www.w3.org/1999/xlink" x="0px" y="0px"
	 viewBox="0 0 361.8 140.4" style="enable-background:new 0 0 361.8 140.4;" xml:space="preserve">
<style type="text/css">
	.st0{fill:url(#SVGID_1_);}
</style>
<title>Cobertura</title>
<linearGradient id="SVGID_1_" gradientUnits="userSpaceOnUse" x1="180.89" y1="7.47" x2="180.89" y2="147.88" gradientTransform="matrix(1 0 0 -1 0 147.88)">
	<stop  offset="0" style="stop-color:#D45A6A"/>
	<stop  offset="1" style="stop-color:#E8BE46"/>
</linearGradient>
<path class="st0" d="M10.9,5.4c0,3-2.4,5.4-5.4,5.4S0,8.4,0,5.4C0,2.4,2.4,0,5.4,0C8.4,0,10.9,2.4,10.9,5.4z M55.6,0
	c-3,0-5.4,2.4-5.4,5.4s2.4,5.4,5.4,5.4S61,8.4,61,5.4C61,2.4,58.6,0,55.6,0L55.6,0z M105.7,0c-3,0-5.4,2.4-5.4,5.4s2.4,5.4,5.4,5.4
	c3,0,5.4-2.4,5.4-5.4c0,0,0,0,0,0C111.1,2.4,108.7,0,105.7,0L105.7,0z M155.8,0c-3,0-5.4,2.4-5.4,5.4s2.4,5.4,5.4,5.4
	c3,0,5.4-2.4,5.4-5.4c0,0,0,0,0,0C161.2,2.5,158.8,0,155.8,0L155.8,0z M205.9,0c-3,0-5.4,2.4-5.4,5.4s2.4,5.4,5.4,5.4
	c3,0,5.4-2.4,5.4-5.4c0,0,0,0,0,0C211.4,2.4,209,0,205.9,0L205.9,0z M256.1,0c-3,0-5.4,2.4-5.4,5.4c0,3,2.4,5.4,5.4,5.4
	c3,0,5.4-2.4,5.4-5.4c0,0,0,0,0,0C261.5,2.4,259.1,0,256.1,0L256.1,0z M306.2,0c-3,0-5.4,2.4-5.4,5.4c0,3,2.4,5.4,5.4,5.4
	c3,0,5.4-2.4,5.4-5.4c0,0,0,0,0,0C311.6,2.4,309.2,0,306.2,0L306.2,0z M356.3,0c-3,0-5.4,2.4-5.4,5.4c0,3,2.4,5.4,5.4,5.4
	c3,0,5.4-2.4,5.4-5.4c0,0,0,0,0,0C361.7,2.4,359.3,0,356.3,0L356.3,0z M5.5,43.2c-3,0-5.4,2.4-5.5,5.4c0,3,2.4,5.4,5.4,5.5
	c3,0,5.4-2.4,5.5-5.4c0,0,0,0,0,0C10.9,45.6,8.5,43.2,5.5,43.2z M55.6,43.2c-3,0-5.4,2.4-5.4,5.4s2.4,5.4,5.4,5.4s5.4-2.4,5.4-5.4
	C61,45.6,58.6,43.2,55.6,43.2z M105.7,43.2c-3,0-5.4,2.4-5.4,5.4s2.4,5.4,5.4,5.4c3,0,5.4-2.4,5.4-5.4v0
	C111.1,45.6,108.7,43.2,105.7,43.2z M155.8,43.2c-3,0-5.4,2.4-5.4,5.4s2.4,5.4,5.4,5.4c3,0,5.4-2.4,5.4-5.4v0
	C161.3,45.6,158.9,43.2,155.8,43.2L155.8,43.2z M206,43.2c-3,0-5.4,2.4-5.4,5.4S203,54,206,54c3,0,5.4-2.4,5.4-5.4v0
	C211.4,45.6,209,43.2,206,43.2z M256.1,43.2c-3,0-5.4,2.4-5.4,5.4c0,3,2.4,5.4,5.4,5.4c3,0,5.4-2.4,5.4-5.4v0
	C261.5,45.6,259.1,43.2,256.1,43.2z M306.2,43.2c-3,0-5.4,2.4-5.4,5.4c0,3,2.4,5.4,5.4,5.4c3,0,5.4-2.4,5.4-5.4v0
	C311.6,45.6,309.2,43.2,306.2,43.2z M356.4,43.2c-3,0-5.4,2.4-5.4,5.4c0,3,2.4,5.4,5.4,5.4c3,0,5.4-2.4,5.4-5.4v0
	C361.8,45.6,359.3,43.2,356.4,43.2z M5.5,86.4c-3,0-5.4,2.4-5.5,5.4c0,3,2.4,5.4,5.4,5.5c3,0,5.4-2.4,5.5-5.4c0,0,0,0,0,0
	C10.9,88.8,8.5,86.4,5.5,86.4z M55.6,86.4c-3,0-5.4,2.4-5.4,5.4c0,3,2.4,5.4,5.4,5.4s5.4-2.4,5.4-5.4l0,0
	C61,88.8,58.6,86.4,55.6,86.4z M105.7,86.4c-3,0-5.4,2.4-5.4,5.4s2.4,5.4,5.4,5.4s5.4-2.4,5.4-5.4v0
	C111.1,88.8,108.7,86.4,105.7,86.4z M155.8,86.4c-3,0-5.4,2.4-5.4,5.4s2.4,5.4,5.4,5.4s5.4-2.4,5.4-5.4v0
	C161.3,88.8,158.9,86.4,155.8,86.4L155.8,86.4z M206,86.4c-3,0-5.4,2.4-5.4,5.4s2.4,5.4,5.4,5.4s5.4-2.4,5.4-5.4v0
	C211.4,88.8,209,86.4,206,86.4z M256.1,86.4c-3,0-5.4,2.4-5.4,5.4c0,3,2.4,5.4,5.4,5.4c3,0,5.4-2.4,5.4-5.4v0
	C261.5,88.8,259.1,86.4,256.1,86.4z M306.2,86.4c-3,0-5.4,2.4-5.4,5.4c0,3,2.4,5.4,5.4,5.4c3,0,5.4-2.4,5.4-5.4v0
	C311.6,88.8,309.2,86.4,306.2,86.4z M356.4,86.4c-3,0-5.4,2.4-5.4,5.4c0,3,2.4,5.4,5.4,5.4c3,0,5.4-2.4,5.4-5.4v0
	C361.8,88.8,359.3,86.4,356.4,86.4z M5.5,129.6c-3,0-5.4,2.4-5.5,5.4s2.4,5.4,5.4,5.5c3,0,5.4-2.4,5.5-5.4c0,0,0-0.1,0-0.1
	C10.8,132,8.4,129.6,5.5,129.6z M55.6,129.6c-3,0-5.4,2.4-5.4,5.4c0,3,2.4,5.4,5.4,5.4c3,0,5.4-2.4,5.4-5.4c0,0,0,0,0,0
	C61,132,58.6,129.5,55.6,129.6z M105.7,129.6c-3,0-5.4,2.4-5.4,5.4s2.4,5.4,5.4,5.4s5.4-2.4,5.4-5.4v0
	C111.1,132,108.7,129.6,105.7,129.6z M155.8,129.6c-3,0-5.4,2.4-5.4,5.4s2.4,5.4,5.4,5.4s5.4-2.4,5.4-5.4v0
	C161.3,132,158.9,129.6,155.8,129.6L155.8,129.6z M206,129.6c-3,0-5.4,2.4-5.4,5.4s2.4,5.4,5.4,5.4s5.4-2.4,5.4-5.4v0
	C211.4,132,209,129.6,206,129.6z M256.1,129.6c-3,0-5.4,2.4-5.4,5.4c0,3,2.4,5.4,5.4,5.4c3,0,5.4-2.4,5.4-5.4v0
	C261.5,132,259.1,129.6,256.1,129.6z M306.2,129.6c-3,0-5.4,2.4-5.4,5.4c0,3,2.4,5.4,5.4,5.4c3,0,5.4-2.4,5.4-5.4v0
	C311.6,132,309.2,129.6,306.2,129.6z M356.4,129.6c-3,0-5.4,2.4-5.4,5.4c0,3,2.4,5.4,5.4,5.4c3,0,5.4-2.4,5.4-5.4v0
	C361.8,132,359.3,129.6,356.4,129.6z"/>
</svg>
