<?xml version="1.0" encoding="utf-8"?>
<!-- Generator: Adobe Illustrator 24.0.0, SVG Export Plug-In . SVG Version: 6.00 Build 0)  -->
<svg version="1.1" id="Capa_1" xmlns="http://www.w3.org/2000/svg" xmlns:xlink="http://www.w3.org/1999/xlink" x="0px" y="0px"
	 viewBox="0 0 97.1 424.9" style="enable-background:new 0 0 97.1 424.9;" xml:space="preserve">
<style type="text/css">
	.st0{fill:#FFFFFF;}
	.st1{fill:#E8BE46;}
</style>
<title>flecha amarillas</title>
<polygon class="st0" points="48.6,401.1 36.1,422.7 61,422.7 "/>
<path class="st1" d="M64.6,424.9H32.6l16-27.6L64.6,424.9z M48.6,103.1l-16,27.6h32L48.6,103.1z M48.6,341.5l-16,27.6h32L48.6,341.5
	z M48.6,308.3l-16,27.6h32L48.6,308.3z M48.6,239.7l-16,27.6h32L48.6,239.7z M48.6,206.4l-16,27.6h32L48.6,206.4z"/>
<polygon class="st1" points="97.1,25 72.1,0 48.5,23.6 25,0 0,25 23.6,48.6 0,72.1 25,97.1 48.5,73.5 72.1,97.1 97.1,72.1 
	73.5,48.6 "/>
</svg>
