<svg xmlns="http://www.w3.org/2000/svg" viewBox="0 0 300 250"><defs><style>.cls-1{fill:none;stroke:#a3a2a2;stroke-miterlimit:10;stroke-width:3px;}</style></defs><title>frme 2</title><g id="Capa_4" data-name="Capa 4"><path class="cls-1" d="M15.33,213.79V25.55a8.87,8.87,0,0,1,.19-1.85,9.45,9.45,0,0,1,.54-1.79,9.6,9.6,0,0,1,.88-1.64,9.43,9.43,0,0,1,2.62-2.62,9.33,9.33,0,0,1,1.65-.88A9.14,9.14,0,0,1,23,16.23,8.9,8.9,0,0,1,24.85,16h250.3a8.9,8.9,0,0,1,1.86.19,9.14,9.14,0,0,1,1.78.54,9.33,9.33,0,0,1,1.65.88,9.43,9.43,0,0,1,2.62,2.62,9.6,9.6,0,0,1,.88,1.64,9.45,9.45,0,0,1,.54,1.79,8.87,8.87,0,0,1,.19,1.85V213.79a8.87,8.87,0,0,1-.19,1.85,9.45,9.45,0,0,1-.54,1.79,9.6,9.6,0,0,1-.88,1.64,9,9,0,0,1-1.18,1.44,9.69,9.69,0,0,1-1.44,1.19,9.28,9.28,0,0,1-1.65.87,9.92,9.92,0,0,1-1.78.55,9.61,9.61,0,0,1-1.86.18H24.85a9.61,9.61,0,0,1-1.86-.18,9.92,9.92,0,0,1-1.78-.55,9.28,9.28,0,0,1-1.65-.87,9.69,9.69,0,0,1-1.44-1.19,9,9,0,0,1-1.18-1.44,9.6,9.6,0,0,1-.88-1.64,9.45,9.45,0,0,1-.54-1.79A8.87,8.87,0,0,1,15.33,213.79Z"/></g></svg>