<svg xmlns="http://www.w3.org/2000/svg" viewBox="0 0 200 200"><defs><style>.cls-1{fill:#fe5b6b;}</style></defs><title>iconos</title><g id="Capa_4" data-name="Capa 4"><path class="cls-1" d="M49.29,152.38H98.6a7.71,7.71,0,0,0,7.71-7.7V123.47a1.56,1.56,0,0,1-1.56,1.56h-1.56v19.65a4.59,4.59,0,0,1-4.59,4.58H49.29a4.59,4.59,0,0,1-4.59-4.58V125H43.14a1.56,1.56,0,0,1-1.56-1.56v21.21A7.71,7.71,0,0,0,49.29,152.38Z"/><path class="cls-1" d="M43.14,62H44.7V55.42a4.6,4.6,0,0,1,4.59-4.59H98.6a4.6,4.6,0,0,1,4.59,4.59V62h1.56a1.56,1.56,0,0,1,1.56,1.56V55.42a7.72,7.72,0,0,0-7.71-7.71H49.29a7.72,7.72,0,0,0-7.71,7.71V63.6A1.56,1.56,0,0,1,43.14,62Z"/><path class="cls-1" d="M74,146a7.38,7.38,0,1,0-7.38-7.38A7.39,7.39,0,0,0,74,146Zm0-11.63a4.26,4.26,0,1,1-4.26,4.25A4.26,4.26,0,0,1,74,134.4Z"/><path class="cls-1" d="M43.14,125h61.61a1.56,1.56,0,0,0,1.56-1.56V63.6A1.56,1.56,0,0,0,104.75,62H43.14a1.56,1.56,0,0,0-1.56,1.56v59.87A1.56,1.56,0,0,0,43.14,125ZM44.7,65.16h58.49v56.75H44.7Z"/><path class="cls-1" d="M115.05,84a17.3,17.3,0,0,1,.27,32,1.56,1.56,0,0,0,.6,3,1.62,1.62,0,0,0,.61-.12,20.43,20.43,0,0,0-.31-37.77,1.56,1.56,0,0,0-1.17,2.9Z"/><path class="cls-1" d="M124.13,74.89a27.22,27.22,0,0,1,.41,50.31,1.56,1.56,0,0,0,.61,3,1.66,1.66,0,0,0,.61-.12A30.34,30.34,0,0,0,125.29,72a1.56,1.56,0,1,0-1.16,2.89Z"/><path class="cls-1" d="M133.76,63.62a1.56,1.56,0,0,0-1.17,2.89,36.29,36.29,0,0,1,.56,67.07,1.56,1.56,0,0,0,.6,3,1.46,1.46,0,0,0,.61-.13,39.4,39.4,0,0,0-.6-72.83Z"/></g></svg>