<svg xmlns="http://www.w3.org/2000/svg" viewBox="0 0 200 200"><defs><style>.cls-1{fill:#fe5b6b;}</style></defs><title>iconos</title><g id="Capa_4" data-name="Capa 4"><path class="cls-1" d="M115.25,114c.25-.25.52-.47.78-.7l-1.87-1.87L112,113.63l1.94,1.93A16.61,16.61,0,0,1,115.25,114Z"/><path class="cls-1" d="M48.86,110.3,50,111.41l6.63-6.64-1.1-1.1a1.56,1.56,0,0,1,2.2-2.21l1.11,1.11L63,98.36a.39.39,0,0,1,.28-.12.38.38,0,0,1,.28.12l3.78,3.78,2.21-2.2-3.78-3.78a3.59,3.59,0,0,0-5,0L46.66,110.3A1.57,1.57,0,0,1,48.86,110.3Z"/><path class="cls-1" d="M68,116.2l-1.1-1.1-6.64,6.64,1.11,1.1a1.56,1.56,0,1,1-2.21,2.2l-1.1-1.1-4.27,4.26a.34.34,0,0,1-.56,0l-3.78-3.78-1.1,1.11a1.55,1.55,0,0,1-1.1.45,1.56,1.56,0,0,1-1.11-2.66l1.11-1.1-3.78-3.78a.4.4,0,0,1,0-.57l4.26-4.26-1.1-1.1a1.56,1.56,0,0,1,0-2.21l-5.37,5.37a3.53,3.53,0,0,0,0,5l9.77,9.76a3.51,3.51,0,0,0,5,0l14.21-14.2a1.59,1.59,0,0,1-1.1.45A1.56,1.56,0,0,1,68,116.2Z"/><path class="cls-1" d="M69.56,104.35l3.78,3.78a.39.39,0,0,1,.12.28.38.38,0,0,1-.12.28l-4.2,4.2,1.1,1.11a1.55,1.55,0,0,1,0,2.2l5.3-5.3a3.5,3.5,0,0,0,0-5l-3.78-3.79Z"/><path class="cls-1" d="M51.82,117.67l-4.54,4.55-1.11,1.1A1.56,1.56,0,0,0,47.28,126a1.55,1.55,0,0,0,1.1-.45l1.1-1.11L54,119.88Z"/><rect class="cls-1" x="53.76" y="111.69" width="9.38" height="3.12" transform="translate(-62.96 74.49) rotate(-45)"/><polygon class="cls-1" points="72.02 97.48 69.56 99.94 67.35 102.14 62.87 106.63 65.08 108.83 69.56 104.35 71.77 102.14 74.22 99.69 72.02 97.48"/><path class="cls-1" d="M46.66,112.51l1.1,1.1,4.06,4.06L54,119.88l4.06,4.06,1.1,1.1a1.56,1.56,0,0,0,2.21-2.2l-1.11-1.1-4.06-4.07-2.2-2.2L50,111.41l-1.11-1.11a1.57,1.57,0,0,0-2.2,0h0A1.56,1.56,0,0,0,46.66,112.51Z"/><path class="cls-1" d="M70.24,114l-1.1-1.11-4.06-4.06-2.21-2.2-4.06-4.06-1.11-1.11a1.56,1.56,0,0,0-2.2,2.21l1.1,1.1,4.06,4.06L62.87,111l4.06,4.06,1.1,1.1a1.56,1.56,0,0,0,1.11.46,1.59,1.59,0,0,0,1.1-.45h0A1.55,1.55,0,0,0,70.24,114Z"/><path class="cls-1" d="M111.23,47.94l1.1,1.11,4.2-4.21a.42.42,0,0,1,.28-.11.42.42,0,0,1,.29.11l3.78,3.78,1.1-1.11a1.57,1.57,0,0,1,2.2,0l-4.88-4.88a3.61,3.61,0,0,0-5,0L109,47.94A1.56,1.56,0,0,1,111.23,47.94Z"/><path class="cls-1" d="M102.38,56.79l1.11,1.1,6.63-6.64-1.1-1.1a1.56,1.56,0,0,1,0-2.21l-8.84,8.84A1.56,1.56,0,0,1,102.38,56.79Z"/><path class="cls-1" d="M121.56,62.68l-1.11-1.1-6.63,6.63,1.1,1.1a1.56,1.56,0,1,1-2.21,2.21l-1.1-1.1-4.26,4.26a.34.34,0,0,1-.56,0L103,70.9l-.73.73h0l-.24.24-.14.14h0l-1.1,1.1,3.78,3.78a3.52,3.52,0,0,0,5,0l14.19-14.2a1.55,1.55,0,0,1-1.09.45A1.52,1.52,0,0,1,121.56,62.68Z"/><path class="cls-1" d="M124.19,49.72l-1.11,1.11,3.78,3.77a.41.41,0,0,1,0,.57l-4.2,4.2,1.1,1.11a1.55,1.55,0,0,1,0,2.19l5.3-5.29a3.53,3.53,0,0,0,0-5l-4.88-4.88A1.57,1.57,0,0,1,124.19,49.72Z"/><path class="cls-1" d="M99.83,69.67l1-1L97,64.91a.35.35,0,0,1-.11-.28.34.34,0,0,1,.11-.27l4.26-4.26L100.18,59a1.56,1.56,0,0,1,0-2.2l-5.35,5.36a3.49,3.49,0,0,0,0,5L98.6,70.9Z"/><rect class="cls-1" x="107.28" y="58.17" width="9.38" height="3.12" transform="translate(-9.44 96.69) rotate(-45.01)"/><path class="cls-1" d="M107.55,66.36l-2.21-2.21L100.8,68.7l-1,1,.24-.25a1.58,1.58,0,0,1,2.21,0,1.56,1.56,0,0,1,0,2.21l.73-.73Z"/><polygon class="cls-1" points="102.04 71.88 101.9 72.01 101.9 72.01 102.04 71.88"/><path class="cls-1" d="M122,47.51l-1.1,1.11-4.49,4.49,2.21,2.2,4.48-4.48,1.11-1.11a1.57,1.57,0,0,0,0-2.2h0A1.57,1.57,0,0,0,122,47.51Z"/><path class="cls-1" d="M100.18,59l1.1,1.11,4.06,4.05,2.21,2.21,4.06,4.06,1.1,1.1a1.56,1.56,0,0,0,2.21-2.21l-1.1-1.1-4.06-4.06L107.55,62l-4.06-4.06-1.11-1.1a1.56,1.56,0,0,0-2.2,0h0A1.56,1.56,0,0,0,100.18,59Z"/><path class="cls-1" d="M109,50.15l1.1,1.1,4.06,4.06,2.21,2.21,4.06,4.06,1.11,1.1a1.52,1.52,0,0,0,1.1.46,1.55,1.55,0,0,0,1.09-.45h0a1.55,1.55,0,0,0,0-2.19l-1.1-1.11-4.06-4.06-2.21-2.2-4.06-4.06-1.1-1.11a1.56,1.56,0,0,0-2.21,0h0A1.56,1.56,0,0,0,109,50.15Z"/><path class="cls-1" d="M98.86,75.05l1.94-1.94,1.1-1.1.14-.14.24-.24h0a1.56,1.56,0,0,0,0-2.21,1.58,1.58,0,0,0-2.21,0l-.24.25L98.6,70.9l-1.95,1.95Z"/><path class="cls-1" d="M114.16,111.42l7-7a5.14,5.14,0,0,0,1.51-3.51,4.75,4.75,0,0,0-1.39-3.53L98.86,75.05l-2.21-2.2L87,63.22a4.79,4.79,0,0,0-3.41-1.4A5.11,5.11,0,0,0,80,63.34L62.52,80.82a5,5,0,0,0-.13,7L72,97.48l2.2,2.21L96.6,122.07a4.78,4.78,0,0,0,3.41,1.39,5.11,5.11,0,0,0,3.63-1.52l8.31-8.31Zm-15.35,8.44L64.6,85.65A1.88,1.88,0,0,1,64.72,83L82.2,65.55a2,2,0,0,1,1.42-.61,1.69,1.69,0,0,1,1.2.49L119,99.63a1.68,1.68,0,0,1,.48,1.25,2,2,0,0,1-.6,1.38l-17.47,17.48A1.93,1.93,0,0,1,98.81,119.86Z"/><path class="cls-1" d="M139.12,114.34l-.33-.35a16.61,16.61,0,0,0-22.76-.7c-.26.23-.53.45-.78.7a16.8,16.8,0,0,0,0,23.58l.39.36a1.56,1.56,0,0,0,1,.41,1.52,1.52,0,0,0,1.1-.46l21.31-21.3A1.67,1.67,0,0,0,139.12,114.34Zm-12.1-2.1a13.46,13.46,0,0,1,8.8,3.25l-19.07,19.07a13.55,13.55,0,0,1,.71-18.36A13.4,13.4,0,0,1,127,112.24Z"/><path class="cls-1" d="M123.78,140.33a13.9,13.9,0,0,0,5.19,1,13.78,13.78,0,0,0,12.66-19.16,1.56,1.56,0,0,0-2.88,1.22,10.64,10.64,0,0,1-13.79,14,1.56,1.56,0,1,0-1.18,2.89Z"/><path class="cls-1" d="M123.79,148.77a20.18,20.18,0,0,0,26.15-26.59,1.56,1.56,0,1,0-2.87,1.22A17.05,17.05,0,0,1,125,145.87a1.56,1.56,0,0,0-1.17,2.9Z"/><path class="cls-1" d="M157.64,122.22a1.56,1.56,0,0,0-2.87,1.22,22.92,22.92,0,0,1-29.71,30.2,1.56,1.56,0,0,0-1.17,2.9,26,26,0,0,0,28.2-5.72A25.92,25.92,0,0,0,157.64,122.22Z"/></g></svg>