<svg xmlns="http://www.w3.org/2000/svg" viewBox="0 0 200 200"><defs><style>.cls-1{fill:#fe5b6b;}</style></defs><title>iconos</title><g id="Capa_4" data-name="Capa 4"><path class="cls-1" d="M131.44,119.27a34.14,34.14,0,0,0-63.1.53,5.69,5.69,0,0,0,10.56,4.26,22.75,22.75,0,0,1,42.05-.35,5.69,5.69,0,0,0,5.25,3.48,5.78,5.78,0,0,0,2.21-.45A5.72,5.72,0,0,0,131.44,119.27Zm-7.61,3.22a25.87,25.87,0,0,0-47.82.4A2.58,2.58,0,0,1,71.23,121a31,31,0,0,1,57.34-.48,2.57,2.57,0,1,1-4.74,2Z"/><path class="cls-1" d="M140.1,113.28a5.64,5.64,0,0,0,2.21-.45,5.72,5.72,0,0,0,3-7.47,49.09,49.09,0,0,0-90.72.75,5.71,5.71,0,0,0,3.15,7.42,5.8,5.8,0,0,0,2.13.41,5.66,5.66,0,0,0,5.28-3.56,37.69,37.69,0,0,1,69.67-.58A5.67,5.67,0,0,0,140.1,113.28Zm-81.16-2.64a2.59,2.59,0,0,1-1.42-3.36,46,46,0,0,1,84.94-.7A2.59,2.59,0,0,1,141.1,110a2.63,2.63,0,0,1-3.38-1.37,40.81,40.81,0,0,0-75.43.62A2.6,2.6,0,0,1,58.94,110.64Z"/><path class="cls-1" d="M100.18,54.09A62.76,62.76,0,0,0,42,93.36a5.71,5.71,0,0,0,3.15,7.41,5.58,5.58,0,0,0,2.13.42,5.66,5.66,0,0,0,5.28-3.57,51.36,51.36,0,0,1,94.93-.79A5.69,5.69,0,1,0,158,92.4,62.65,62.65,0,0,0,100.18,54.09Zm54.93,41.49a2.53,2.53,0,0,1-1.38,1.4,2.61,2.61,0,0,1-3.38-1.36,54.47,54.47,0,0,0-100.69.83,2.57,2.57,0,1,1-4.77-1.93,59.62,59.62,0,0,1,110.2-.9A2.56,2.56,0,0,1,155.11,95.58Z"/><path class="cls-1" d="M109.63,136.36A9.64,9.64,0,1,0,100,146,9.64,9.64,0,0,0,109.63,136.36ZM100,129.84a6.52,6.52,0,1,1-6.52,6.52A6.52,6.52,0,0,1,100,129.84Z"/></g></svg>