<?xml version="1.0" encoding="utf-8"?>
<!-- Generator: Adobe Illustrator 22.0.1, SVG Export Plug-In . SVG Version: 6.00 Build 0)  -->
<svg version="1.1" id="Capa_1" xmlns="http://www.w3.org/2000/svg" xmlns:xlink="http://www.w3.org/1999/xlink" x="0px" y="0px"
	 viewBox="0 0 180 180" style="enable-background:new 0 0 180 180;" xml:space="preserve">
<style type="text/css">
	.st0{fill:#FE5B6B;}
</style>
<title>Iconos</title>
<g id="Capa_4">
	<g>
		<defs>
			<rect id="SVGID_1_" x="-153.3" y="32.1" width="86.6" height="115.8"/>
		</defs>
		<clipPath id="SVGID_2_">
			<use xlink:href="#SVGID_1_"  style="overflow:visible;"/>
		</clipPath>
	</g>
	<path class="st0" d="M147.6,53.4c-4.2,1.9-8.6,3.1-13.1,3.6c4.8-2.9,8.4-7.4,10.1-12.7c-4.5,2.7-9.4,4.6-14.5,5.6
		c-8.6-9.2-23.1-9.7-32.4-1.1c-4.6,4.3-7.3,10.4-7.2,16.7c0,1.8,0.2,3.5,0.6,5.2c-18.4-0.9-35.6-9.6-47.2-23.9
		c-6.1,10.5-3,23.8,7.1,30.6c-3.6-0.1-7.2-1.1-10.4-2.9v0.3c0,10.9,7.7,20.3,18.4,22.4c-2,0.5-4,0.8-6,0.8c-1.4,0-2.9-0.1-4.3-0.4
		c3,9.3,11.6,15.7,21.4,15.9c-8.1,6.4-18.1,9.8-28.4,9.8c-1.8,0-3.7-0.1-5.5-0.4c10.5,6.7,22.6,10.3,35.1,10.3
		c42.1,0,65.1-34.9,65.1-65.1c0-1,0-2-0.1-3C140.6,61.9,144.5,58,147.6,53.4z"/>
</g>
</svg>
