<svg xmlns="http://www.w3.org/2000/svg" viewBox="0 0 180 180"><defs><style>.cls-1{fill:#fe5b6b;}</style></defs><title>Iconos</title><g id="Capa_4" data-name="Capa 4"><path class="cls-1" d="M90,26.67a62.1,62.1,0,0,1,12.09,1.19,62.13,62.13,0,0,1,22.34,9.25,62,62,0,0,1,22.83,27.82,61.42,61.42,0,0,1,3.53,11.63,62,62,0,0,1,0,24.18,61.91,61.91,0,0,1-9.26,22.34,61.93,61.93,0,0,1-103.06,0,60.56,60.56,0,0,1-5.73-10.71,61.42,61.42,0,0,1-3.53-11.63,62,62,0,0,1,0-24.18,62.05,62.05,0,0,1,9.26-22.35,61.77,61.77,0,0,1,17.1-17.1,62.13,62.13,0,0,1,22.34-9.25A62.1,62.1,0,0,1,90,26.67ZM96,94.6c-7.67,7.67-16.55,15-20.06,11.49-5-5-8.12-9.41-19.2-.5S54.12,120.43,59,125.3c5.62,5.61,26.56.29,47.25-20.4s26-41.64,20.4-47.26c-4.87-4.87-10.8-13.37-19.7-2.29s-4.53,14.17.49,19.19C110.94,78.05,103.61,86.93,96,94.6Z"/></g></svg>