<svg xmlns="http://www.w3.org/2000/svg" viewBox="0 0 180 180"><defs><style>.cls-1{fill:#fe5b6b;}</style></defs><title>Iconos</title><g id="Capa_4" data-name="Capa 4"><path class="cls-1" d="M128.62,60.85a6.57,6.57,0,1,1,6.57,6.57A6.57,6.57,0,0,1,128.62,60.85ZM86.5,90.52A18.57,18.57,0,1,0,105.07,72,18.66,18.66,0,0,0,86.5,90.52Zm-10.42,0a29,29,0,1,1,29,29A29,29,0,0,1,76.08,90.52ZM65.44,50.89c-4.08,4.07-6.11,9.73-6.11,16.53v46.43c0,7,2,12.68,6.11,16.75,4.08,3.85,9.74,5.89,16.53,5.89h46.2c6.8,0,12.46-2,16.53-5.89s6.57-9.51,6.57-16.53V67.42a23.34,23.34,0,0,0-6.12-16.31C141.08,47,135.42,45,128.62,45H82C75.18,45,69.29,47,65.44,50.89Zm16.53,96c-9.28,0-17.44-2.95-23.55-8.83-6.34-6.12-9.51-14.5-9.51-24.23V67.42c0-19.7,13.13-32.84,32.83-32.84H128.4c9.51,0,17.89,3.17,23.77,9.29,5.89,5.88,9.07,14,9.07,23.55v46.65c0,9.74-3.18,18.12-9.29,24-5.89,5.66-14,8.83-23.78,8.83Z"/></g></svg>