<svg xmlns="http://www.w3.org/2000/svg" viewBox="0 0 180 180"><defs><style>.cls-1{fill:#fe5b6b;}</style></defs><title>Iconos</title><g id="Capa_4" data-name="Capa 4"><path class="cls-1" d="M158.52,52.54c-3.73-6.64-7.79-7.86-16-8.33s-29-.79-46.92-.79-38.73.24-47,.79S36.3,45.89,32.53,52.54,26.71,70.6,26.71,90.72v.07c0,20,2,31.54,5.82,38.11s7.82,7.84,16.06,8.4,29,.77,47,.77,38.68-.29,46.93-.76,12.3-1.76,16-8.41,5.84-18.07,5.84-38.1v-.07C164.37,70.6,162.41,59.18,158.52,52.54Zm-80.19,64V64.93l43,25.81Z"/></g></svg>