<svg id="Capa_1" data-name="Capa 1" xmlns="http://www.w3.org/2000/svg" xmlns:xlink="http://www.w3.org/1999/xlink" viewBox="0 0 200 200"><defs><style>.cls-1{fill:url(#Nueva_muestra_de_degradado_1);}.cls-2{fill:url(#Nueva_muestra_de_degradado_1-2);}.cls-3{fill:url(#Nueva_muestra_de_degradado_1-3);}.cls-4{fill:url(#Nueva_muestra_de_degradado_1-4);}.cls-5{fill:url(#Nueva_muestra_de_degradado_1-5);}.cls-6{fill:url(#Nueva_muestra_de_degradado_1-6);}.cls-7{fill:url(#Nueva_muestra_de_degradado_1-7);}.cls-8{fill:url(#Nueva_muestra_de_degradado_1-8);}.cls-9{fill:url(#Nueva_muestra_de_degradado_1-9);}.cls-10{fill:url(#Nueva_muestra_de_degradado_1-10);}.cls-11{fill:url(#Nueva_muestra_de_degradado_1-11);}.cls-12{fill:url(#Nueva_muestra_de_degradado_1-12);}</style><linearGradient id="Nueva_muestra_de_degradado_1" x1="34.08" y1="51.46" x2="68.85" y2="51.46" gradientUnits="userSpaceOnUse"><stop offset="0" stop-color="#e8be46"/><stop offset="1" stop-color="#dc4852"/></linearGradient><linearGradient id="Nueva_muestra_de_degradado_1-2" x1="27.38" y1="60.56" x2="93.75" y2="60.56" xlink:href="#Nueva_muestra_de_degradado_1"/><linearGradient id="Nueva_muestra_de_degradado_1-3" x1="27.35" y1="69.34" x2="111.33" y2="69.34" xlink:href="#Nueva_muestra_de_degradado_1"/><linearGradient id="Nueva_muestra_de_degradado_1-4" x1="30.26" y1="78" x2="125.74" y2="78" xlink:href="#Nueva_muestra_de_degradado_1"/><linearGradient id="Nueva_muestra_de_degradado_1-5" x1="35.57" y1="86.76" x2="137.96" y2="86.76" xlink:href="#Nueva_muestra_de_degradado_1"/><linearGradient id="Nueva_muestra_de_degradado_1-6" x1="42.76" y1="95.58" x2="148.41" y2="95.58" xlink:href="#Nueva_muestra_de_degradado_1"/><linearGradient id="Nueva_muestra_de_degradado_1-7" x1="51.59" y1="104.42" x2="157.24" y2="104.42" xlink:href="#Nueva_muestra_de_degradado_1"/><linearGradient id="Nueva_muestra_de_degradado_1-8" x1="62.04" y1="113.24" x2="164.43" y2="113.24" xlink:href="#Nueva_muestra_de_degradado_1"/><linearGradient id="Nueva_muestra_de_degradado_1-9" x1="74.26" y1="122" x2="169.74" y2="122" xlink:href="#Nueva_muestra_de_degradado_1"/><linearGradient id="Nueva_muestra_de_degradado_1-10" x1="88.67" y1="130.66" x2="172.65" y2="130.66" xlink:href="#Nueva_muestra_de_degradado_1"/><linearGradient id="Nueva_muestra_de_degradado_1-11" x1="106.25" y1="139.44" x2="172.62" y2="139.44" xlink:href="#Nueva_muestra_de_degradado_1"/><linearGradient id="Nueva_muestra_de_degradado_1-12" x1="131.15" y1="148.54" x2="165.92" y2="148.54" xlink:href="#Nueva_muestra_de_degradado_1"/></defs><title>circulo</title><path class="cls-1" d="M48.46,48.46A72.41,72.41,0,0,0,34.08,68.85L68.85,34.08A72.41,72.41,0,0,0,48.46,48.46Z"/><path class="cls-2" d="M86.8,28.31,28.31,86.8q-.63,3.45-.93,7L93.75,27.38Q90.26,27.68,86.8,28.31Z"/><path class="cls-3" d="M106,27.35,27.35,106c.15,1.8.36,3.6.64,5.38L111.33,28C109.55,27.71,107.75,27.5,106,27.35Z"/><path class="cls-4" d="M121.24,30.26l-91,91c.46,1.51,1,3,1.52,4.5l94-94C124.25,31.22,122.75,30.72,121.24,30.26Z"/><path class="cls-5" d="M134.13,35.57,35.57,134.13c.68,1.29,1.42,2.57,2.19,3.83L138,37.76C136.7,37,135.42,36.25,134.13,35.57Z"/><path class="cls-6" d="M145.14,42.76,42.76,145.14q1.32,1.67,2.74,3.27L148.41,45.5Q146.81,44.08,145.14,42.76Z"/><path class="cls-7" d="M154.5,51.59,51.59,154.5q1.6,1.42,3.27,2.74L157.24,54.86Q155.92,53.2,154.5,51.59Z"/><path class="cls-8" d="M162.25,62,62,162.25c1.26.76,2.54,1.5,3.83,2.18l98.56-98.56C163.75,64.58,163,63.3,162.25,62Z"/><path class="cls-9" d="M168.22,74.26l-94,94c1.49.56,3,1.06,4.5,1.52l91-91C169.28,77.25,168.78,75.75,168.22,74.26Z"/><path class="cls-10" d="M172,88.67,88.67,172c1.78.28,3.58.49,5.38.64l78.6-78.6C172.5,92.25,172.29,90.45,172,88.67Z"/><path class="cls-11" d="M172.62,106.25l-66.37,66.37q3.5-.3,7-.93l58.49-58.49Q172.32,109.75,172.62,106.25Z"/><path class="cls-12" d="M131.15,165.92a73,73,0,0,0,34.77-34.77Z"/></svg>