<svg id="Capa_1" data-name="Capa 1" xmlns="http://www.w3.org/2000/svg" viewBox="0 0 200 450"><defs><style>.cls-1{fill:#fff;}</style></defs><title>flechas</title><polygon class="cls-1" points="98.14 5 85.71 26.53 110.57 26.53 98.14 5"/><polygon class="cls-1" points="98.14 26.53 85.71 48.05 110.57 48.05 98.14 26.53"/><polygon class="cls-1" points="98.14 48.05 85.71 69.58 110.57 69.58 98.14 48.05"/><polygon class="cls-1" points="98.14 162 85.71 183.53 110.57 183.53 98.14 162"/><polygon class="cls-1" points="98.14 196.29 85.71 217.81 110.57 217.81 98.14 196.29"/><polygon class="cls-1" points="98.14 392.07 85.71 413.6 110.57 413.6 98.14 392.07"/><polygon class="cls-1" points="98.14 402.83 85.71 424.36 110.57 424.36 98.14 402.83"/><polygon class="cls-1" points="98.14 424.14 85.71 445.67 110.57 445.67 98.14 424.14"/></svg>