<svg xmlns="http://www.w3.org/2000/svg" xmlns:xlink="http://www.w3.org/1999/xlink" viewBox="0 0 180 180"><defs><style>.cls-1{fill:url(#Degradado_sin_nombre_3);}.cls-2{fill:url(#Degradado_sin_nombre_3-2);}.cls-3{fill:url(#Degradado_sin_nombre_3-3);}.cls-4{fill:url(#Degradado_sin_nombre_3-4);}.cls-5{fill:url(#Degradado_sin_nombre_3-5);}.cls-6{fill:url(#Degradado_sin_nombre_3-6);}.cls-7{fill:url(#Degradado_sin_nombre_3-7);}.cls-8{fill:url(#Degradado_sin_nombre_3-8);}.cls-9{fill:url(#Degradado_sin_nombre_3-9);}.cls-10{fill:url(#Degradado_sin_nombre_3-10);}.cls-11{fill:url(#Degradado_sin_nombre_3-11);}.cls-12{fill:url(#Degradado_sin_nombre_3-12);}</style><linearGradient id="Degradado_sin_nombre_3" x1="54.55" y1="63.9" x2="73.25" y2="63.9" gradientUnits="userSpaceOnUse"><stop offset="0" stop-color="#e8be46"/><stop offset="1" stop-color="#fe5b6b"/></linearGradient><linearGradient id="Degradado_sin_nombre_3-2" x1="50.94" y1="68.79" x2="86.64" y2="68.79" xlink:href="#Degradado_sin_nombre_3"/><linearGradient id="Degradado_sin_nombre_3-3" x1="50.93" y1="73.51" x2="96.09" y2="73.51" xlink:href="#Degradado_sin_nombre_3"/><linearGradient id="Degradado_sin_nombre_3-4" x1="52.49" y1="78.17" x2="103.84" y2="78.17" xlink:href="#Degradado_sin_nombre_3"/><linearGradient id="Degradado_sin_nombre_3-5" x1="55.35" y1="82.88" x2="110.41" y2="82.88" xlink:href="#Degradado_sin_nombre_3"/><linearGradient id="Degradado_sin_nombre_3-6" x1="59.22" y1="87.62" x2="116.03" y2="87.62" xlink:href="#Degradado_sin_nombre_3"/><linearGradient id="Degradado_sin_nombre_3-7" x1="63.97" y1="92.38" x2="120.78" y2="92.38" xlink:href="#Degradado_sin_nombre_3"/><linearGradient id="Degradado_sin_nombre_3-8" x1="69.59" y1="97.12" x2="124.65" y2="97.12" xlink:href="#Degradado_sin_nombre_3"/><linearGradient id="Degradado_sin_nombre_3-9" x1="76.16" y1="101.83" x2="127.51" y2="101.83" xlink:href="#Degradado_sin_nombre_3"/><linearGradient id="Degradado_sin_nombre_3-10" x1="83.91" y1="106.49" x2="129.07" y2="106.49" xlink:href="#Degradado_sin_nombre_3"/><linearGradient id="Degradado_sin_nombre_3-11" x1="93.36" y1="111.21" x2="129.06" y2="111.21" xlink:href="#Degradado_sin_nombre_3"/><linearGradient id="Degradado_sin_nombre_3-12" x1="106.75" y1="116.1" x2="125.45" y2="116.1" xlink:href="#Degradado_sin_nombre_3"/></defs><title>circulo</title><g id="Capa_4" data-name="Capa 4"><path class="cls-1" d="M62.28,62.28a39,39,0,0,0-7.73,11l18.7-18.7A39,39,0,0,0,62.28,62.28Z"/><path class="cls-2" d="M82.9,51.45,51.45,82.9c-.23,1.24-.4,2.49-.51,3.74l35.7-35.7C85.39,51.05,84.14,51.22,82.9,51.45Z"/><path class="cls-3" d="M93.2,50.93,50.93,93.2c.08,1,.19,1.93.34,2.89L96.09,51.27C95.13,51.12,94.17,51,93.2,50.93Z"/><path class="cls-4" d="M101.42,52.49,52.49,101.42c.25.82.52,1.62.82,2.42l50.53-50.53C103,53,102.24,52.74,101.42,52.49Z"/><path class="cls-5" d="M108.35,55.35l-53,53c.37.7.76,1.39,1.18,2.06l53.88-53.88C109.74,56.11,109.05,55.72,108.35,55.35Z"/><path class="cls-6" d="M114.27,59.22l-55,55.05c.47.6,1,1.19,1.47,1.76L116,60.69C115.46,60.18,114.87,59.69,114.27,59.22Z"/><path class="cls-7" d="M119.31,64,64,119.31c.57.51,1.16,1,1.76,1.47l55.05-55C120.31,65.13,119.82,64.54,119.31,64Z"/><path class="cls-8" d="M123.47,69.59,69.59,123.47c.67.42,1.36.81,2.06,1.18l53-53C124.28,71,123.89,70.26,123.47,69.59Z"/><path class="cls-9" d="M126.69,76.16,76.16,126.69c.8.3,1.6.57,2.42.82l48.93-48.93C127.26,77.76,127,77,126.69,76.16Z"/><path class="cls-10" d="M128.73,83.91,83.91,128.73c1,.15,1.92.26,2.89.34L129.07,86.8C129,85.83,128.88,84.87,128.73,83.91Z"/><path class="cls-11" d="M129.06,93.36l-35.7,35.7c1.25-.11,2.5-.28,3.74-.51L128.55,97.1C128.78,95.86,129,94.61,129.06,93.36Z"/><path class="cls-12" d="M106.75,125.45a39.3,39.3,0,0,0,18.7-18.7Z"/></g></svg>