<svg xmlns="http://www.w3.org/2000/svg" xmlns:xlink="http://www.w3.org/1999/xlink" viewBox="0 0 180 180"><defs><style>.cls-1{fill:none;}.cls-2{clip-path:url(#clip-path);}.cls-3{fill:#a3a2a2;}</style><clipPath id="clip-path"><rect class="cls-1" x="1.37" y="-0.33" width="92" height="180.66"/></clipPath></defs><title>circulo gris</title><g id="Capa_4" data-name="Capa 4"><g class="cls-2"><path class="cls-3" d="M12.57-8.41-106,110.2c.6,2,1.25,3.93,2,5.86L18.43-6.43C16.5-7.15,14.54-7.81,12.57-8.41Z"/><path class="cls-3" d="M29.37-1.49-99.12,127c.9,1.69,1.85,3.35,2.85,5L34.37,1.36C32.72.36,31.06-.59,29.37-1.49Z"/><path class="cls-3" d="M43.72,7.88-89.75,141.35q1.73,2.18,3.58,4.27L48,11.46Q45.89,9.6,43.72,7.88Z"/><path class="cls-3" d="M55.93,19.4-78.23,153.56c1.39,1.24,2.82,2.43,4.27,3.58L59.51,23.67Q57.79,21.49,55.93,19.4Z"/><path class="cls-3" d="M66,33-64.61,163.66q2.46,1.5,5,2.85L68.88,38C68,36.33,67,34.67,66,33Z"/><path class="cls-3" d="M73.81,49-48.68,171.45q2.91,1.08,5.87,2L75.8,54.82C75.2,52.85,74.54,50.89,73.81,49Z"/><path class="cls-3" d="M78.76,67.74-29.89,176.39q3.48.54,7,.83L79.59,74.75Q79.31,71.24,78.76,67.74Z"/><path class="cls-3" d="M79.56,90.66-7,177.19c3-.26,6.06-.67,9.06-1.22L78.34,99.72C78.89,96.72,79.3,93.69,79.56,90.66Z"/><path class="cls-3" d="M25.48,168.45a95,95,0,0,0,26.6-18.74,94.81,94.81,0,0,0,18.74-26.6Z"/></g></g></svg>