<svg xmlns="http://www.w3.org/2000/svg" viewBox="0 0 180 180"><defs><style>.cls-1{fill:#fe5b6b;}</style></defs><title>Iconos</title><g id="Capa_4" data-name="Capa 4"><path class="cls-1" d="M83.14,96.42a159.88,159.88,0,0,0-32.63,4.88,1.35,1.35,0,1,0,.65,2.63h0a157.36,157.36,0,0,1,32.08-4.79,1.35,1.35,0,0,0,1.29-1.41A1.36,1.36,0,0,0,83.14,96.42Z"/><path class="cls-1" d="M46.14,102.49c-.69.19-1.42.41-2.16.64a1.35,1.35,0,1,0,.78,2.59l2.13-.63a1.35,1.35,0,1,0-.75-2.6Z"/><path class="cls-1" d="M117.58,105H89.11a1.35,1.35,0,0,0-1.35,1.35v5.42a1.36,1.36,0,0,0,1.35,1.36h28.47a1.36,1.36,0,0,0,1.35-1.36V106.3A1.35,1.35,0,0,0,117.58,105Zm-1.36,5.42H90.47v-2.71h25.75Z"/><path class="cls-1" d="M65.37,105.16A3.82,3.82,0,1,0,69.19,109,3.82,3.82,0,0,0,65.37,105.16Zm0,4.92a1.11,1.11,0,1,1,1.11-1.1A1.11,1.11,0,0,1,65.37,110.08Z"/><path class="cls-1" d="M76,105.16A3.82,3.82,0,1,0,79.8,109h0A3.82,3.82,0,0,0,76,105.16Zm0,4.92a1.11,1.11,0,1,1,1.1-1.11h0A1.1,1.1,0,0,1,76,110.08Z"/><path class="cls-1" d="M142.54,99.33l-5-1.55h0l-.27-.08V88.46a3.71,3.71,0,0,0-3.71-3.62h-2.67l-18.33-32.1A4.67,4.67,0,0,0,114.46,49a4.52,4.52,0,1,0-4.59,4.59l17.86,31.27h-1.08A3.66,3.66,0,0,0,123,88.46V94a159.25,159.25,0,0,0-65.51,0V88.46a3.66,3.66,0,0,0-3.66-3.62h-1.1L70.14,53.63l.41,0a4.66,4.66,0,1,0-2.93-1.06l-18,32.25H47a3.7,3.7,0,0,0-3.71,3.62V97.7l-.26.08-5,1.55a5.89,5.89,0,0,0-4.18,5.61v9.38a6.07,6.07,0,0,0,6,6h3.52V124a5.18,5.18,0,0,0,5.24,5.09H50v5.3a1.24,1.24,0,0,0,1.21,1.26H66.53a1.28,1.28,0,0,0,1.35-1.26v-5.3h44.73v5.3a1.27,1.27,0,0,0,1.35,1.26h15.18a1.25,1.25,0,0,0,1.31-1.17v-5.39H132a5.18,5.18,0,0,0,5.24-5.09v-3.71h3.52a6.07,6.07,0,0,0,6-6v-9.38A5.9,5.9,0,0,0,142.54,99.33ZM110.32,50.82a1.58,1.58,0,0,1-.38,0,1.88,1.88,0,1,1,1.81-2V49A1.88,1.88,0,0,1,110.32,50.82ZM70.55,47a2,2,0,1,1-1.92,2v0A1.94,1.94,0,0,1,70.55,47Zm55.16,41.44a1,1,0,0,1,.94-.91h6.87a1,1,0,0,1,1,.91v8.43c-2.91-.85-5.87-1.61-8.81-2.28ZM46,88.46a1,1,0,0,1,1-.91h6.86a1,1,0,0,1,1,.91v6.15c-3,.68-5.9,1.44-8.81,2.28ZM50,126.4H48.5A2.48,2.48,0,0,1,46,124v-3.71H50Zm23,0h-5.2v-6.09h5.2Zm7.9,0H75.79v-6.09H81Zm7.91,0h-5.2v-6.09h5.2Zm7.9,0H91.6v-6.09h5.19Zm7.91,0H99.51v-6.09h5.19Zm7.91,0h-5.2v-6.09h5.2ZM127.74,133H115.32V120.31h12.42Zm6.78-8.93A2.48,2.48,0,0,1,132,126.4h-1.54v-6.09h4.07Zm9.48-9.7a3.32,3.32,0,0,1-3.25,3.27H61.36a1.36,1.36,0,0,0,0,2.72h3.81V133H52.75V120.31h1.82a1.36,1.36,0,1,0,0-2.72H39.74a3.34,3.34,0,0,1-3.26-3.27v-9.38a3.2,3.2,0,0,1,2.27-3l5-1.55,1.34-.41c3.71-1.12,7.51-2.1,11.28-2.93a156.7,156.7,0,0,1,67.68,0c3.78.83,7.57,1.81,11.28,2.93l1.33.41,5,1.55a3.17,3.17,0,0,1,2.27,3Z"/></g></svg>