<svg xmlns="http://www.w3.org/2000/svg" viewBox="0 0 180 180"><defs><style>.cls-1{fill:#fe5b6b;}</style></defs><title>Iconos</title><g id="Capa_4" data-name="Capa 4"><g id="outline"><path class="cls-1" d="M132.21,119.82,128.58,118a1,1,0,0,1-.46-1.36,1.05,1.05,0,0,1,.46-.45,2.41,2.41,0,0,1,2.16,0l1.47.73a1.64,1.64,0,0,0,1.47-2.93l-1.47-.74a7.17,7.17,0,0,0-.91-.36v-2.36H128v2.36a6.63,6.63,0,0,0-.91.36,4.31,4.31,0,0,0-1.92,5.77,4.25,4.25,0,0,0,1.92,1.92l3.63,1.82a1,1,0,0,1,.45,1.36,1,1,0,0,1-.45.45,2.41,2.41,0,0,1-2.16,0l-1.47-.73a1.64,1.64,0,1,0-1.49,2.92h0l1.47.74a6.63,6.63,0,0,0,.91.36v2.36h3.28v-2.36a7.17,7.17,0,0,0,.91-.36,4.3,4.3,0,0,0,0-7.69Z"/><path class="cls-1" d="M145.5,80a49.27,49.27,0,1,0-27.44,52,16.41,16.41,0,0,0,23.21-23.2A49,49,0,0,0,145.5,80Zm-93.2-4h9.34A32.53,32.53,0,0,0,61.27,81V94.11A32.53,32.53,0,0,0,61.64,99H52.3A46.6,46.6,0,0,1,52.3,76.05Zm12,44a45.84,45.84,0,0,1-11-17.73h9a32.91,32.91,0,0,0,21.59,23,8.22,8.22,0,0,0,10.69-8.9l-1.75-13.12a4.79,4.79,0,0,0-.25-1h9.17v9.85a1.63,1.63,0,0,0,1.64,1.64,1.65,1.65,0,0,0,1-.3l34.47-24.63a1.64,1.64,0,0,0,.38-2.29,1.52,1.52,0,0,0-.38-.38L104.35,61.58a1.65,1.65,0,0,0-2.29.39,1.61,1.61,0,0,0-.31,1v9.85H92.58a4.79,4.79,0,0,0,.25-1l1.75-13.11a8.23,8.23,0,0,0-10.7-8.9,32.89,32.89,0,0,0-21.58,23h-9a46,46,0,1,1,85.38,33.88,16.41,16.41,0,0,0-22.72,22.72A46,46,0,0,1,64.32,120.05Zm39.07-21H78.1a32.33,32.33,0,0,1-.39-3.68v0c0-.17,0-.33,0-.49s0-.48,0-.72V81c0-.24,0-.48,0-.72s0-.32,0-.48v0a32.57,32.57,0,0,1,.39-3.68h25.29A1.63,1.63,0,0,0,105,74.41v-8.3l30,21.44L105,109v-8.3A1.63,1.63,0,0,0,103.39,99Zm-13.82,4.71,1.75,13.11a4.91,4.91,0,0,1-1.74,4.45,5.06,5.06,0,0,1-.65.46l-2.78-19.45H88a1.64,1.64,0,0,1,1.62,1.43Zm-6.28,1.77a5.94,5.94,0,0,1-4.38-3.2h3.92Zm-.46-32.75H78.91a6,6,0,0,1,4.38-3.2Zm8.49-14.54L89.57,71.34A1.64,1.64,0,0,1,88,72.77h-1.8l2.77-19.45a4.55,4.55,0,0,1,.66.46,4.91,4.91,0,0,1,1.74,4.45Zm-7.55,8a9.27,9.27,0,0,0-8.53,7.12,35,35,0,0,0-.82,6.77c0,.29,0,.58,0,.87V94.11c0,.29,0,.58,0,.88a35.18,35.18,0,0,0,.82,6.77,9.28,9.28,0,0,0,8.53,7.12l1.93,13.51a5,5,0,0,1-.79-.18,29.5,29.5,0,0,1-20.36-28.1V81A29.49,29.49,0,0,1,84.91,52.89a4.14,4.14,0,0,1,.79-.19Zm45.89,67.29a13.13,13.13,0,1,1,13.13-13.13A13.13,13.13,0,0,1,129.66,133.51Z"/></g></g></svg>