<?xml version="1.0" encoding="utf-8"?>
<!-- Generator: Adobe Illustrator 24.0.0, SVG Export Plug-In . SVG Version: 6.00 Build 0)  -->
<svg version="1.1" id="Layer_1" xmlns="http://www.w3.org/2000/svg" xmlns:xlink="http://www.w3.org/1999/xlink" x="0px" y="0px"
	 viewBox="0 0 180 180" style="enable-background:new 0 0 180 180;" xml:space="preserve">
<style type="text/css">
	.st0{fill:#FE5B6B;}
</style>
<title>Iconos</title>
<g id="Capa_4">
	<path class="st0" d="M83.1,96.4c-11,0.5-22,2.1-32.6,4.9c-0.7,0.2-1.2,0.9-1,1.6s0.9,1.2,1.6,1l0,0c10.5-2.7,21.3-4.3,32.1-4.8
		c0.7,0,1.3-0.7,1.3-1.4c0,0,0,0,0,0C84.5,97,83.9,96.4,83.1,96.4z"/>
	<path class="st0" d="M46.1,102.5c-0.7,0.2-1.4,0.4-2.2,0.6c-0.7,0.2-1.1,1-0.9,1.7s1,1.1,1.7,0.9l2.1-0.6c0.7-0.2,1.1-1,0.9-1.7
		C47.6,102.7,46.9,102.3,46.1,102.5z"/>
	<path class="st0" d="M117.6,105H89.1c-0.7,0-1.3,0.6-1.3,1.3v5.4c0,0.7,0.6,1.4,1.3,1.4h28.5c0.7,0,1.4-0.6,1.3-1.4v-5.5
		C118.9,105.6,118.3,105,117.6,105z M116.2,110.4H90.5v-2.7h25.8V110.4z"/>
	<path class="st0" d="M65.4,105.2c-2.1,0-3.8,1.7-3.8,3.8c0,2.1,1.7,3.8,3.8,3.8c2.1,0,3.8-1.7,3.8-3.8
		C69.2,106.9,67.5,105.2,65.4,105.2C65.4,105.2,65.4,105.2,65.4,105.2z M65.4,110.1c-0.6,0-1.1-0.5-1.1-1.1s0.5-1.1,1.1-1.1
		s1.1,0.5,1.1,1.1c0,0,0,0,0,0C66.5,109.6,66,110.1,65.4,110.1z"/>
	<path class="st0" d="M76,105.2c-2.1,0-3.8,1.7-3.8,3.8c0,2.1,1.7,3.8,3.8,3.8c2.1,0,3.8-1.7,3.8-3.8l0,0
		C79.8,106.9,78.1,105.2,76,105.2C76,105.2,76,105.2,76,105.2z M76,110.1c-0.6,0-1.1-0.5-1.1-1.1s0.5-1.1,1.1-1.1
		c0.6,0,1.1,0.5,1.1,1.1c0,0,0,0,0,0l0,0C77.1,109.6,76.6,110.1,76,110.1C76,110.1,76,110.1,76,110.1z"/>
	<path class="st0" d="M142.5,99.3l-5-1.6l0,0l-0.3-0.1v-9.2c0-2-1.7-3.6-3.7-3.6h-2.7l-18.3-32.1c1.2-0.9,1.9-2.3,1.9-3.7
		c0-2.5-2.1-4.5-4.6-4.4c-2.5,0-4.5,2.1-4.4,4.6c0,2.4,2,4.4,4.4,4.4l17.9,31.3h-1.1c-2,0-3.6,1.6-3.6,3.6V94
		c-21.6-4.5-43.9-4.5-65.5,0v-5.5c0-2-1.7-3.6-3.7-3.6h-1.1l17.4-31.2h0.4c2.6,0,4.7-2.1,4.7-4.6c0-2.6-2.1-4.7-4.6-4.7
		c-2.6,0-4.7,2.1-4.7,4.6c0,1.4,0.6,2.7,1.7,3.6l-18,32.3H47c-2,0-3.7,1.6-3.7,3.6v9.3L43,97.8l-5,1.6c-2.5,0.8-4.2,3-4.2,5.6v9.4
		c0,3.3,2.7,6,6,6h3.5v3.7c0,2.8,2.4,5.1,5.2,5.1H50v5.3c0,0.7,0.5,1.2,1.2,1.3h15.3c0.7,0,1.3-0.5,1.3-1.2c0,0,0,0,0-0.1v-5.3h44.7
		v5.3c0,0.7,0.6,1.3,1.3,1.3c0,0,0,0,0.1,0h15.2c0.7,0,1.3-0.5,1.3-1.2v-5.4h1.6c2.8,0,5.2-2.2,5.2-5.1v-3.7h3.5c3.3,0,6-2.7,6-6
		v-9.4C146.7,102.3,145,100.1,142.5,99.3z M110.3,50.8c-0.1,0-0.3,0-0.4,0c-1,0-1.9-0.8-1.9-1.8c0-1,0.8-1.9,1.8-1.9
		c1,0,1.9,0.7,1.9,1.8V49C111.7,49.9,111.2,50.6,110.3,50.8z M70.6,47c1.1,0,2,0.8,2.1,1.9c0,1.1-0.8,2-1.9,2.1
		c-1.1,0-2-0.8-2.1-1.9c0,0,0-0.1,0-0.1l0,0C68.6,47.9,69.4,47,70.6,47C70.5,47,70.5,47,70.6,47z M125.7,88.4c0-0.5,0.4-0.9,0.9-0.9
		h6.9c0.5,0,1,0.4,1,0.9v8.4c-2.9-0.8-5.9-1.6-8.8-2.3V88.4z M46,88.5c0-0.5,0.5-0.9,1-0.9h6.9c0.5,0,1,0.4,1,0.9v6.2
		c-3,0.7-5.9,1.4-8.8,2.3L46,88.5z M50,126.4h-1.5c-1.3,0-2.5-1.1-2.5-2.4v-3.7h4V126.4z M73,126.4h-5.2v-6.1H73V126.4z M80.9,126.4
		h-5.1v-6.1H81L80.9,126.4z M88.8,126.4h-5.2v-6.1h5.2V126.4z M96.7,126.4h-5.1v-6.1h5.2L96.7,126.4z M104.6,126.4h-5.1v-6.1h5.2
		L104.6,126.4z M112.5,126.4h-5.2v-6.1h5.2V126.4z M127.7,133h-12.4v-12.7h12.4V133z M134.5,124.1c-0.1,1.3-1.2,2.4-2.5,2.3h-1.5
		v-6.1h4.1L134.5,124.1z M144,114.4c0,1.8-1.5,3.2-3.3,3.3H61.4c-0.8,0-1.4,0.6-1.4,1.4s0.6,1.4,1.4,1.4l0,0h3.8V133H52.8v-12.7h1.8
		c0.8,0,1.4-0.6,1.4-1.4s-0.6-1.4-1.4-1.4H39.7c-1.8,0-3.2-1.5-3.3-3.3v-9.4c0-1.4,0.9-2.6,2.3-3l5-1.6l1.3-0.4
		c3.7-1.1,7.5-2.1,11.3-2.9c22.3-4.9,45.4-4.9,67.7,0c3.8,0.8,7.6,1.8,11.3,2.9l1.3,0.4l5,1.6c1.3,0.4,2.3,1.6,2.3,3L144,114.4z"/>
</g>
</svg>
