<?xml version="1.0" encoding="utf-8"?>
<!-- Generator: Adobe Illustrator 24.0.0, SVG Export Plug-In . SVG Version: 6.00 Build 0)  -->
<svg version="1.1" id="Layer_1" xmlns="http://www.w3.org/2000/svg" xmlns:xlink="http://www.w3.org/1999/xlink" x="0px" y="0px"
	 viewBox="0 0 180 180" style="enable-background:new 0 0 180 180;" xml:space="preserve">
<style type="text/css">
	.st0{fill:#FE5B6B;}
</style>
<title>Iconos</title>
<g id="Capa_4">
	<path class="st0" d="M74.9,76.1c0.9,1.1,2.6,1.3,3.7,0.4c1.1-0.9,1.3-2.4,0.5-3.5c-3.8-5-3.6-11.9,0.3-16.8
		c0.9-1.1,0.8-2.8-0.4-3.7c-1.1-0.9-2.8-0.8-3.7,0.4C69.9,59.5,69.7,69.2,74.9,76.1z"/>
	<path class="st0" d="M69.2,84.3c0.6,0,1.2-0.2,1.7-0.6c1.1-0.9,1.3-2.6,0.4-3.7c-7.4-9.1-7.2-22.1,0.4-31c0.9-1.2,0.6-2.8-0.6-3.7
		c-1-0.8-2.5-0.7-3.4,0.2c-9.3,10.8-9.5,26.7-0.6,37.8C67.7,83.9,68.4,84.3,69.2,84.3z"/>
	<path class="st0" d="M103.6,64.8c0,2.9-1,5.8-2.7,8.2c-0.9,1.1-0.8,2.8,0.4,3.7c1.1,0.9,2.8,0.8,3.7-0.4c0.1-0.1,0.1-0.1,0.2-0.2
		c5.2-7,5-16.6-0.5-23.3c-0.9-1.1-2.6-1.3-3.7-0.4c-1.1,0.9-1.3,2.6-0.4,3.7C102.5,58.6,103.6,61.6,103.6,64.8z"/>
	<path class="st0" d="M114.1,64.8c0,5.5-1.9,10.9-5.4,15.2c-0.9,1.1-0.7,2.8,0.4,3.7c0.5,0.4,1.1,0.6,1.7,0.6c0.8,0,1.6-0.4,2.1-1
		c9-11.1,8.8-27-0.6-37.8c-1.1-1-2.7-1-3.8,0c-0.9,0.9-1,2.4-0.2,3.4C112.1,53.4,114.1,59,114.1,64.8z"/>
	<path class="st0" d="M115,130.1h-7.5L94,72.1c4.1-2.2,5.6-7.2,3.4-11.3s-7.2-5.6-11.3-3.4c-4.1,2.2-5.6,7.2-3.4,11.3
		c0.8,1.4,2,2.6,3.4,3.4l-13.6,57.9H65c-1.5,0-2.7,1.2-2.7,2.7s1.2,2.7,2.7,2.7h50c1.5,0,2.7-1.2,2.7-2.7S116.5,130.1,115,130.1z
		 M97,108.7l-10.2-6.1l7.7-4.5L97,108.7z M90,61.8c1.7,0,3,1.3,3,3s-1.3,3-3,3s-3-1.3-3-3S88.3,61.8,90,61.8
		C90,61.8,90,61.8,90,61.8z M90,78.6l3.3,14.1l-7.7,4.5L90,78.6z M83.4,106.7l12.4,7.4l-16.5,9.7L83.4,106.7z M79.4,130.1l19.9-11.8
		l2.8,11.8H79.4z"/>
</g>
</svg>
