<?xml version="1.0" encoding="utf-8"?>
<!-- Generator: Adobe Illustrator 24.0.0, SVG Export Plug-In . SVG Version: 6.00 Build 0)  -->
<svg version="1.1" id="Layer_1" xmlns="http://www.w3.org/2000/svg" xmlns:xlink="http://www.w3.org/1999/xlink" x="0px" y="0px"
	 viewBox="0 0 180 180" style="enable-background:new 0 0 180 180;" xml:space="preserve">
<style type="text/css">
	.st0{fill:#FE5B6B;}
</style>
<title>Iconos</title>
<g id="Capa_4">
	<g id="outline">
		<path class="st0" d="M132.2,119.8l-3.6-1.8c-0.5-0.2-0.7-0.8-0.5-1.3c0,0,0,0,0,0c0.1-0.2,0.3-0.4,0.5-0.4c0.7-0.3,1.5-0.3,2.2,0
			l1.5,0.7c0.8,0.4,1.8,0,2.2-0.8c0.4-0.8,0.1-1.7-0.7-2.1l-1.5-0.7c-0.3-0.1-0.6-0.3-0.9-0.4v-2.4H128v2.4
			c-0.3,0.1-0.6,0.2-0.9,0.4c-2.1,1.1-3,3.6-1.9,5.8c0.4,0.8,1.1,1.5,1.9,1.9l3.6,1.8c0.5,0.2,0.7,0.8,0.5,1.3c0,0,0,0,0,0
			c-0.1,0.2-0.3,0.4-0.4,0.4c-0.7,0.3-1.5,0.3-2.2,0l-1.5-0.7c-0.8-0.4-1.8-0.2-2.2,0.6c-0.4,0.8-0.2,1.8,0.6,2.2c0,0,0.1,0,0.1,0
			l0,0l1.5,0.7c0.3,0.1,0.6,0.3,0.9,0.4v2.4h3.3v-2.4c0.3-0.1,0.6-0.2,0.9-0.4c2.1-1.1,3-3.6,1.9-5.8
			C133.7,120.9,133,120.2,132.2,119.8L132.2,119.8z"/>
		<path class="st0" d="M145.5,80c-4.2-26.9-29.3-45.3-56.2-41.1S44,68.2,48.1,95.1s29.3,45.3,56.2,41.1c4.7-0.7,9.4-2.2,13.7-4.2
			c6.5,6.3,16.9,6.2,23.2-0.3c6.2-6.4,6.2-16.5,0-22.9C145.6,99.9,147,89.8,145.5,80z M52.3,76h9.3c-0.3,1.7-0.4,3.3-0.4,5v13.1
			c0,1.6,0.1,3.3,0.4,4.9h-9.3C50.4,91.5,50.4,83.6,52.3,76L52.3,76z M64.3,120c-5-5-8.7-11.1-11-17.7h9c2.8,10.8,10.9,19.5,21.6,23
			c4.3,1.4,9-1,10.4-5.3c0.4-1.2,0.5-2.4,0.3-3.6l-1.8-13.1c0-0.3-0.1-0.7-0.3-1h9.2v9.8c0,0.9,0.7,1.6,1.6,1.6c0,0,0,0,0,0
			c0.4,0,0.7-0.1,1-0.3l34.5-24.6c0.7-0.5,0.9-1.6,0.4-2.3c0,0,0,0,0,0c-0.1-0.1-0.2-0.3-0.4-0.4l-34.5-24.6
			c-0.7-0.5-1.8-0.3-2.3,0.4c-0.2,0.3-0.3,0.6-0.3,1v9.8h-9.2c0.1-0.3,0.2-0.7,0.3-1l1.8-13.1c0.6-4.5-2.6-8.6-7.1-9.2
			c-1.2-0.2-2.4,0-3.6,0.3c-10.6,3.5-18.8,12.2-21.6,23h-9c8-24.1,34.1-37.1,58.2-29.1s37.1,34.1,29.1,58.2
			c-0.5,1.6-1.2,3.2-1.9,4.8c-7.6-5-17.8-2.8-22.7,4.7c-3.6,5.5-3.6,12.5,0,18C98.5,137.4,77.9,133.6,64.3,120L64.3,120z M103.4,99
			H78.1c-0.2-1.2-0.3-2.4-0.4-3.7l0,0c0-0.2,0-0.3,0-0.5s0-0.5,0-0.7V81c0-0.2,0-0.5,0-0.7s0-0.3,0-0.5l0,0c0.1-1.2,0.2-2.5,0.4-3.7
			h25.3c0.9,0,1.6-0.7,1.6-1.6c0,0,0,0,0-0.1v-8.3l30,21.4L105,109v-8.3C105,99.8,104.3,99,103.4,99C103.4,99,103.4,99,103.4,99
			L103.4,99z M89.6,103.7l1.8,13.1c0.2,1.7-0.4,3.4-1.7,4.4c-0.2,0.2-0.4,0.3-0.7,0.5l-2.8-19.4H88
			C88.8,102.3,89.5,102.9,89.6,103.7L89.6,103.7z M83.3,105.5c-1.9-0.3-3.5-1.5-4.4-3.2h3.9L83.3,105.5z M82.8,72.7h-3.9
			c0.9-1.7,2.5-2.9,4.4-3.2L82.8,72.7z M91.3,58.2l-1.7,13.2c-0.1,0.8-0.8,1.4-1.6,1.4h-1.8L89,53.3c0.2,0.1,0.5,0.3,0.7,0.5
			C90.9,54.9,91.6,56.5,91.3,58.2L91.3,58.2z M83.8,66.2c-4.1,0.2-7.6,3.1-8.5,7.1c-0.5,2.2-0.8,4.5-0.8,6.8c0,0.3,0,0.6,0,0.9v13.2
			c0,0.3,0,0.6,0,0.9c0.1,2.3,0.3,4.5,0.8,6.8c1,4,4.4,6.9,8.5,7.1l1.9,13.5c-0.3,0-0.5-0.1-0.8-0.2c-12.2-4-20.4-15.3-20.4-28.1V81
			c0-12.8,8.2-24.2,20.4-28.1c0.3-0.1,0.5-0.2,0.8-0.2L83.8,66.2z M129.6,133.5c-7.3,0-13.1-5.9-13.1-13.1c0-7.3,5.9-13.1,13.1-13.1
			c7.3,0,13.1,5.9,13.1,13.1C142.8,127.6,136.9,133.5,129.6,133.5C129.7,133.5,129.7,133.5,129.6,133.5L129.6,133.5z"/>
	</g>
</g>
</svg>
