<svg xmlns="http://www.w3.org/2000/svg" viewBox="0 0 180 180"><defs><style>.cls-1{fill:#fe5b6b;}</style></defs><title>Iconos</title><g id="Capa_4" data-name="Capa 4"><path class="cls-1" d="M54.88,88.75H67.37A1.65,1.65,0,0,1,69,90.4V91a1.65,1.65,0,0,1-1.65,1.65H51.91A1.65,1.65,0,0,1,50.26,91V82.75a1.64,1.64,0,0,1,1.65-1.64h1.32a1.64,1.64,0,0,1,1.65,1.64v6ZM81.1,100.08c1.81,0,3.7.07,5.66.07s4,0,5.89-.08a1.64,1.64,0,0,0,1.6-1.64v-8a1.64,1.64,0,0,0-1.65-1.64H82.75A1.64,1.64,0,0,0,81.1,90.4v9.68ZM116,88.75h-8a1.65,1.65,0,0,0-1.65,1.65V91A1.65,1.65,0,0,0,108,92.61h11A1.65,1.65,0,0,0,120.61,91V82.75A1.64,1.64,0,0,0,119,81.11h-1.32A1.64,1.64,0,0,0,116,82.75v6ZM56.53,51.14h57.81A1.64,1.64,0,0,1,116,52.78V68.53a1.65,1.65,0,0,0,1.65,1.65H119a1.65,1.65,0,0,0,1.65-1.65V49.32A1.65,1.65,0,0,0,119,47.67h-67a1.65,1.65,0,0,0-1.65,1.65V68.53a1.65,1.65,0,0,0,1.65,1.65h1.32a1.65,1.65,0,0,0,1.65-1.65V52.78A1.64,1.64,0,0,1,56.53,51.14Zm85.1,67.71v1.64a1.64,1.64,0,0,0,1.58,1.65c8.11.33,13.8,1.12,13.8,2,0,1.22-10.08,2.21-22.53,2.21s-22.54-1-22.54-2.21c0-.82,4.5-1.52,11.18-1.91a1.65,1.65,0,0,0,1.56-1.64v-.14a1.65,1.65,0,0,0-1.65-1.65H99.63A1.64,1.64,0,0,1,98,117.2V75.56a1.65,1.65,0,0,1,1.65-1.65h67.05a1.65,1.65,0,0,1,1.65,1.65V117.2a1.65,1.65,0,0,1-1.65,1.65ZM163.71,115V79a1.64,1.64,0,0,0-1.65-1.64H104.25A1.64,1.64,0,0,0,102.6,79v34.33a1.65,1.65,0,0,0,1.65,1.65h59.46ZM8.66,73.91H75.72a1.65,1.65,0,0,1,1.65,1.65V117.2a1.65,1.65,0,0,1-1.65,1.65H52.31a1.64,1.64,0,0,0-1.65,1.64h0a1.65,1.65,0,0,0,1.59,1.65c8.1.34,13.8,1.12,13.8,2,0,1.22-10.09,2.21-22.54,2.21S21,125.4,21,124.18c0-.82,4.5-1.52,11.18-1.91a1.65,1.65,0,0,0,1.56-1.64v-.14a1.64,1.64,0,0,0-1.65-1.64H8.66A1.65,1.65,0,0,1,7,117.2V75.56A1.65,1.65,0,0,1,8.66,73.91ZM13.28,115H71.1a1.63,1.63,0,0,0,1.64-1.64V79a1.63,1.63,0,0,0-1.64-1.64H13.28A1.64,1.64,0,0,0,11.63,79v34.33A1.64,1.64,0,0,0,13.28,115Z"/></g></svg>