<svg xmlns="http://www.w3.org/2000/svg" viewBox="0 0 180 180"><defs><style>.cls-1{fill:#fe5b6b;}</style></defs><title>Iconos</title><g id="Capa_4" data-name="Capa 4"><path class="cls-1" d="M74.9,76.13a2.66,2.66,0,0,0,4.25-3.19,13.59,13.59,0,0,1,.35-16.76,2.66,2.66,0,0,0-4.12-3.37,18.9,18.9,0,0,0-.48,23.32Z"/><path class="cls-1" d="M69.22,84.33a2.62,2.62,0,0,0,1.67-.59A2.66,2.66,0,0,0,71.28,80a24.14,24.14,0,0,1,.45-31,2.66,2.66,0,0,0-4-3.48,29.46,29.46,0,0,0-.55,37.8A2.66,2.66,0,0,0,69.22,84.33Z"/><path class="cls-1" d="M103.57,64.78a13.66,13.66,0,0,1-2.72,8.16,2.66,2.66,0,1,0,4.25,3.19,18.9,18.9,0,0,0-.48-23.32,2.66,2.66,0,0,0-4.12,3.37A13.61,13.61,0,0,1,103.57,64.78Z"/><path class="cls-1" d="M114.12,64.78A24.23,24.23,0,0,1,108.72,80a2.66,2.66,0,0,0,.39,3.74,2.62,2.62,0,0,0,1.67.59,2.66,2.66,0,0,0,2.07-1,29.46,29.46,0,0,0-.55-37.8,2.66,2.66,0,0,0-4,3.48A24.15,24.15,0,0,1,114.12,64.78Z"/><path class="cls-1" d="M115,130.05h-7.46L94,72.13a8.34,8.34,0,1,0-7.9,0L72.46,130.05H65a2.66,2.66,0,0,0,0,5.32h50a2.66,2.66,0,0,0,0-5.32Zm-18-21.39-10.17-6.07,7.69-4.5Zm-7-46.9a3,3,0,1,1-3,3A3,3,0,0,1,90,61.76Zm0,16.81,3.3,14.1-7.66,4.49Zm-6.6,28.14,12.45,7.42-16.48,9.74Zm-4,23.34,19.93-11.79,2.76,11.79Z"/></g></svg>