<?xml version="1.0" encoding="utf-8"?>
<!-- Generator: Adobe Illustrator 24.0.0, SVG Export Plug-In . SVG Version: 6.00 Build 0)  -->
<svg version="1.1" id="Layer_1" xmlns="http://www.w3.org/2000/svg" xmlns:xlink="http://www.w3.org/1999/xlink" x="0px" y="0px"
	 viewBox="0 0 180 180" style="enable-background:new 0 0 180 180;" xml:space="preserve">
<style type="text/css">
	.st0{fill:#FE5B6B;}
</style>
<title>Iconos</title>
<g id="Capa_4">
	<path class="st0" d="M54.9,88.8h12.5c0.9,0,1.6,0.7,1.6,1.7V91c0,0.9-0.7,1.7-1.7,1.7l0,0H51.9c-0.9,0-1.7-0.7-1.7-1.7l0,0v-8.3
		c0-0.9,0.7-1.6,1.6-1.6c0,0,0,0,0,0h1.3c0.9,0,1.6,0.7,1.6,1.6c0,0,0,0,0,0V88.8z M81.1,100.1c1.8,0,3.7,0.1,5.7,0.1s4,0,5.9-0.1
		c0.9,0,1.6-0.7,1.6-1.6v-8c0-0.9-0.7-1.6-1.6-1.6c0,0,0,0,0,0h-9.8c-0.9,0-1.6,0.7-1.7,1.6V100.1z M116,88.8h-8
		c-0.9,0-1.7,0.7-1.7,1.7l0,0V91c0,0.9,0.8,1.6,1.7,1.6h11c0.9,0,1.6-0.7,1.6-1.6v-8.3c0-0.9-0.7-1.6-1.6-1.6h-1.3
		c-0.9,0-1.7,0.7-1.7,1.6c0,0,0,0,0,0V88.8z M56.5,51.1h57.8c0.9,0,1.6,0.7,1.7,1.6c0,0,0,0,0,0v15.8c0,0.9,0.7,1.7,1.7,1.7l0,0h1.3
		c0.9,0,1.7-0.7,1.7-1.7l0,0V49.3c0-0.9-0.7-1.7-1.7-1.7l0,0H52c-0.9,0-1.7,0.7-1.7,1.6v0v19.2c0,0.9,0.7,1.7,1.6,1.7h0h1.3
		c0.9,0,1.7-0.7,1.7-1.7l0,0V52.8C55,51.9,55.7,51.2,56.5,51.1z M141.6,118.8v1.6c0,0.9,0.7,1.6,1.6,1.7c8.1,0.3,13.8,1.1,13.8,2
		c0,1.2-10.1,2.2-22.5,2.2s-22.5-1-22.5-2.2c0-0.8,4.5-1.5,11.2-1.9c0.9,0,1.6-0.8,1.6-1.6v-0.1c0-0.9-0.7-1.7-1.7-1.7l0,0H99.6
		c-0.9,0-1.6-0.7-1.6-1.6V75.6c0-0.9,0.7-1.7,1.7-1.7l0,0h67.1c0.9,0,1.6,0.7,1.6,1.7v41.6c0,0.9-0.7,1.7-1.6,1.7H141.6z M163.7,115
		V79c0-0.9-0.7-1.6-1.6-1.6c0,0,0,0,0,0h-57.8c-0.9,0-1.6,0.7-1.6,1.6c0,0,0,0,0,0v34.3c0,0.9,0.7,1.7,1.7,1.7l0,0L163.7,115
		L163.7,115z M8.7,73.9h67.1c0.9,0,1.7,0.7,1.7,1.7l0,0v41.6c0,0.9-0.7,1.7-1.7,1.7l0,0H52.3c-0.9,0-1.6,0.7-1.6,1.6c0,0,0,0,0,0
		l0,0c0,0.9,0.7,1.6,1.6,1.7c8.1,0.3,13.8,1.1,13.8,2c0,1.2-10.1,2.2-22.5,2.2S21,125.4,21,124.2c0-0.8,4.5-1.5,11.2-1.9
		c0.9,0,1.6-0.8,1.6-1.6v-0.1c0-0.9-0.7-1.6-1.6-1.6c0,0,0,0,0,0H8.7c-0.9,0-1.7-0.7-1.7-1.6c0,0,0,0,0,0V75.6
		C7,74.6,7.7,73.9,8.7,73.9C8.7,73.9,8.7,73.9,8.7,73.9z M13.3,115h57.8c0.9,0,1.6-0.7,1.6-1.6c0,0,0,0,0,0V79
		c0-0.9-0.7-1.6-1.6-1.6c0,0,0,0,0,0H13.3c-0.9,0-1.6,0.7-1.6,1.6c0,0,0,0,0,0v34.3C11.6,114.2,12.3,115,13.3,115
		C13.3,115,13.3,115,13.3,115z"/>
</g>
</svg>
