<?xml version="1.0" encoding="utf-8"?>
<!-- Generator: Adobe Illustrator 24.0.0, SVG Export Plug-In . SVG Version: 6.00 Build 0)  -->
<svg version="1.1" id="Layer_1" xmlns="http://www.w3.org/2000/svg" xmlns:xlink="http://www.w3.org/1999/xlink" x="0px" y="0px"
	 viewBox="0 0 400.3 431.2" style="enable-background:new 0 0 400.3 431.2;" xml:space="preserve">
<style type="text/css">
	.st0{opacity:0.19;}
	.st1{clip-path:url(#SVGID_2_);}
	.st2{fill:#BDBDBB;}
	.st3{clip-path:url(#SVGID_4_);}
	.st4{fill:#FE5B6B;}
</style>
<title>logo back rojo</title>
<g id="Capa_4">
	<g class="st0">
		<g>
			<defs>
				<rect id="SVGID_1_" x="-971.7" y="-500" width="1369.4" height="480"/>
			</defs>
			<clipPath id="SVGID_2_">
				<use xlink:href="#SVGID_1_"  style="overflow:visible;"/>
			</clipPath>
			<g class="st1">
				<path class="st2" d="M61.7,53.8C28.2,10.7-34,3-77.1,36.6c0,0,0,0,0,0c-8.8,6.9-17.6,13.2-26.5,18.8
					c-30.8,17.9-93.9,48.1-170.9,49.7c-77.1-1.6-140.2-31.7-170.9-49.7c-8.8-5.7-17.6-12-26.5-18.8C-515,3-577.1,10.7-610.7,53.8
					c0,0,0,0,0,0c-33.6,43.1-25.8,105.2,17.3,138.8c0,0,0,0,0,0c3.4,2.7,6.9,5.3,10.4,7.9l-0.5,0.7c2.8,2.1,13.6,10,31.2,20.5
					c83.6,54.1,174.9,81.7,270,81.7c2.7,0,5.3-0.1,8-0.1s5.3,0.1,8,0.1c95.1,0,186.4-27.5,270-81.7c17.5-10.5,28.3-18.4,31.1-20.5
					l-0.6-0.7c3.5-2.6,6.9-5.2,10.4-7.9C87.6,159.1,95.3,97,61.7,53.8C61.7,53.9,61.7,53.9,61.7,53.8z"/>
			</g>
		</g>
	</g>
	<g>
		<defs>
			<rect id="SVGID_3_" x="-970.5" width="1370.8" height="431.2"/>
		</defs>
		<clipPath id="SVGID_4_">
			<use xlink:href="#SVGID_3_"  style="overflow:visible;"/>
		</clipPath>
		<g class="st3">
			<path class="st4" d="M428.6,131.2c-24.5,53.6-84.6,78.5-134.3,55.5s-70-85.1-45.5-138.7s84.6-78.4,134.3-55.4
				S453.1,77.6,428.6,131.2z M426.5-102.4c-138.6-58.8-243-7.9-291.7,98.6s5.1,236.1,115.3,287.2s243,7.9,291.7-98.6
				S545.9-51.7,426.5-102.4z"/>
			<path class="st4" d="M431.9,406.7c-7.9-34.4-42.2-56-76.7-48.1c-0.1,0-0.2,0-0.2,0.1c-7,1.7-13.9,3-20.7,3.9
				c-23,2.2-68.2,2.9-113.9-17.2c-44.9-21.9-73.8-56.9-87.1-75.9c-3.6-5.8-7.1-11.9-10.5-18.4c-16-31.4-54.5-43.8-85.9-27.8
				c-0.1,0.1-0.3,0.1-0.4,0.2C5.1,240.1-7.2,278.8,9.1,310.4c1.3,2.5,2.6,5,4,7.5l-0.5,0.3c1.1,2,5.3,9.6,12.8,20.6
				c34.5,54.8,80.7,96,136.6,121.9c1.6,0.7,3.2,1.4,4.7,2.1s3.1,1.5,4.7,2.3c55.9,25.9,117.1,34.5,180.9,25.2
				c13.2-1.5,21.6-3.2,23.9-3.7L376,486c2.7-0.6,5.5-1.2,8.2-1.8C418.7,475.9,440,441.2,431.9,406.7z"/>
		</g>
	</g>
</g>
</svg>
