<svg id="Capa_1" data-name="Capa 1" xmlns="http://www.w3.org/2000/svg" viewBox="0 0 1370 1153"><defs><style>.cls-1,.cls-4{opacity:0.15;}.cls-2{fill:#a3a2a2;}.cls-3{fill:#fe5b6b;}.cls-4{fill:none;}</style></defs><title>back</title><g class="cls-1"><path class="cls-2" d="M1741.35,879.57a107.79,107.79,0,0,0-151.26-19q-14.44,11.22-28.88,20.47c-33.58,19.49-102.36,52.34-186.37,53.9-84-1.76-152.7-34.78-186.24-54.35q-14.4-9.32-28.83-20.54A107.8,107.8,0,0,0,1027.1,1030q5.61,4.38,11.29,8.59l-.6.81c3.07,2.31,14.83,10.92,33.93,22.42,91,59.13,190.52,89.28,294.16,89.4,2.89,0,5.8-.07,8.7-.12s5.81.14,8.71.15c103.63.12,203.23-29.79,294.37-88.7,19.13-11.45,30.91-20,34-22.34l-.6-.81c3.78-2.81,7.56-5.65,11.31-8.57A107.79,107.79,0,0,0,1741.35,879.57Z"/><path class="cls-2" d="M1541.57,472.72c-.12,98.78-74.8,178.76-166.81,178.65s-166.5-80.27-166.38-179,74.8-178.75,166.81-178.64S1541.69,374,1541.57,472.72ZM1375.4,118.91c-253.17,7.87-377.48,158.6-377.72,354.79s172.55,355.45,376.87,355.7S1752,670.81,1752.27,474.61,1593.56,112.14,1375.4,118.91Z"/><path class="cls-3" d="M367.52,880.4a107.8,107.8,0,0,0-151.26-19q-14.44,11.22-28.88,20.47C153.8,901.36,85,934.21,1,935.77-83,934-151.69,901-185.23,881.43q-14.4-9.31-28.83-20.55a107.79,107.79,0,0,0-151.3,18.63,107.8,107.8,0,0,0,18.63,151.31q5.61,4.38,11.29,8.6l-.6.8c3.07,2.31,14.83,10.93,33.93,22.43,91,59.12,190.52,89.27,294.16,89.4,2.89,0,5.8-.08,8.7-.12s5.81.14,8.71.14c103.63.12,203.23-29.79,294.37-88.7,19.13-11.45,30.91-20,34-22.34l-.6-.8q5.67-4.21,11.31-8.57A107.8,107.8,0,0,0,367.52,880.4Z"/><path class="cls-3" d="M167.74,473.55C167.62,572.32,92.94,652.3.93,652.19s-166.5-80.27-166.38-179S-90.65,294.39,1.36,294.5,167.86,374.77,167.74,473.55ZM1.57,119.74C-251.6,127.6-375.91,278.33-376.15,474.53S-203.6,830,.72,830.22,378.2,671.63,378.44,475.43,219.73,113,1.57,119.74Z"/></g><rect class="cls-4" width="1370" height="1153"/></svg>