<svg id="Layer_1" data-name="Layer 1" xmlns="http://www.w3.org/2000/svg" viewBox="0 0 101 134"><defs><style>.cls-1{fill:#fff;fill-rule:evenodd;}</style></defs><title>iocno_mobig</title><path class="cls-1" d="M19.71,127.1A66.36,66.36,0,0,0,49,133.91c7.72-.29,16.34-1,24-3.46,5.77-1.87,18.21-8.32,21.73-13,3.13-4.16,3.54-8.38,1.08-12.86A11.81,11.81,0,0,0,81.7,99.15c-2.64.87-10.66,6.6-14.63,8.46a42,42,0,0,1-16.73,3.52,50.53,50.53,0,0,1-18.47-4.2C24,103.6,11.8,91.81,4.58,103.25c-6.88,10.89,6.92,19.81,15.13,23.85Z"/><path class="cls-1" d="M72.74,52.14C71.42,62.25,60.26,71.41,50.07,70.86,42.65,70.45,35,66.28,31.26,60,29.38,56.8,28.47,53.18,28,48.35a22.6,22.6,0,0,1,5.55-17.66c5.9-6.43,15.58-8.91,25.12-5.21,10.64,4.13,15.77,13.52,14,26.66ZM12.55,13.75C3.92,22.7-.21,35.32,0,47.84S4.8,72.75,13.58,81.3A48.57,48.57,0,0,0,43.07,94.57c19.72,1.52,41.68-3.89,51.51-22.84,4.18-8.06,6.88-18.73,6.27-27.7C99.72,27.41,92,13.23,76.29,5.67,67,1.17,59.21.07,50.39,0c-14.2-.11-27.9,3.43-37.84,13.75Z"/></svg>