<svg xmlns="http://www.w3.org/2000/svg" viewBox="0 0 520.99 197.83"><defs><style>.cls-1,.cls-2{fill:#fff;}.cls-1{fill-rule:evenodd;}</style></defs><title>logo_mobig-white</title><g id="Layer_2" data-name="Layer 2"><g id="Layer_1-2" data-name="Layer 1"><path class="cls-1" d="M327.37,112.37c-2,.47-25.79-.07-25.79-.07-.26-2.14.05-27.47.05-27.47,2.34-.82,18.93-.59,25.51-.16,7,.45,11.51,3.93,12.75,11,2.06,11.76-6,16.42-12.52,16.7ZM353,71.53c5.15-1.67,14.32-10.56,13.36-28.63a32.36,32.36,0,0,0-5.59-16.12,34.26,34.26,0,0,0-28.05-15l-55.55-.58c-6.61,0-5.73-.42-5.73,6V123.65c0,3.53-.28,8.32.08,11.69,1.82,1.31,6.34.84,9.51.84,5.82,0,49.7.22,52.36-.09,23-2.69,36.67-12.83,36.11-35.48C369,82.54,361.94,74.09,353,71.53Zm-27.2-10.25c-7.55.79-24.55.1-24.55.1l.24-26.91s13.82-.58,23.18.36c8.41.85,13.52,4.82,13,13.94-.41,7.1-4.23,11.72-11.85,12.51Z"/><path class="cls-1" d="M104.1,68.82c13.77-1.09,15.22,11.18,15.22,21.76v22l0,22.21,6.63.81c5,0,19.76.33,22.82-.23.61-2.13.36-37.12.36-42.34,0-7.12-.15-14-.56-20.76-1.13-19.12-16.11-29.73-34.69-29.93C87.81,41.51,84.19,54.39,82.76,57c-1.59-2.42-7.64-15.39-30.05-14.55C38.36,43,26.72,55,26.46,55l.19-10.87c0-.25-24.4,0-26.59,0L0,135.24l28.64.22c.7-1.07.26-41.89.33-47.05.15-10,4.16-19.77,15.85-19.76,9.85,0,13.44,6.23,14.51,15.47l.15,51,29.41.12c.65-.74.16-38.84.29-45.87.19-10.5,2.78-19.58,14.92-20.55Z"/><path class="cls-1" d="M487.24,159.65c10.12,2.76,6.06,8.9,0,11.37-6.86,3-12.48,3.4-19.87,3.33-7-.06-18-2.08-24.05-5.76-6.5-3.93-6.22-12.31,2.73-12.73,11.3-.54,37.71,2.85,41.15,3.79Zm-38.62-77c.65-9.13,8.2-15.13,17.23-15.41C479.46,66.86,485,77,483.22,89.63c-1,7.34-9.34,13-16,13.07-11.78.14-19.37-8.61-18.56-20Zm58.63-16,13.46-.33.08-22.65-51.44-.19c-9.52,0-23.09,1.51-31,7.58-6.86,5.25-10.65,9.26-14.24,17.57-4.8,17.56-3.56,25.44,4.32,39.67-4.65,6.51-8,8-10.52,16.5-1.38,4.67-.73,9.72.5,14.33.52,2,3.45,5.85,3.51,6.66a29.72,29.72,0,0,0-6.46,20c1.37,23.12,28.74,28.44,48.54,29.18,21.19.79,57-3.1,57-31.58,0-15.28-8.4-20.21-21.43-24-16-4.61-27.48-3.74-43.63-5.61-4.31-.49-11.84-1.21-11.66-6.81.07-2.3,1.66-4.8,4.06-4.78,2,0,8,2.35,15.94,2.53,11,.24,23.76-2,33.05-8.46,16.35-11.33,17-32.64,9.93-49.67Z"/><path class="cls-1" d="M380.32,45.05H380l.32,89.71h27.17v-90H380.32v.29Zm31.12-27.12C411.54,5.78,404.26.28,392.78,0c-9.84-.24-17,6.16-16.94,17.19.11,11.48,8.46,18.09,19.55,17.3,9.53-.68,16-6.67,16.05-16.57Z"/><path class="cls-1" d="M179.76,151a66.35,66.35,0,0,0,29.29,6.8c7.72-.28,16.34-1,24-3.45,5.77-1.87,18.21-8.32,21.73-13,3.13-4.17,3.54-8.38,1.08-12.86A11.81,11.81,0,0,0,241.75,123c-2.65.87-10.66,6.6-14.64,8.46A42.09,42.09,0,0,1,210.39,135a50.53,50.53,0,0,1-18.47-4.2c-7.86-3.34-20.07-15.13-27.29-3.68-6.88,10.89,6.92,19.81,15.13,23.85Z"/><path class="cls-1" d="M232.79,76c-1.32,10.1-12.48,19.27-22.67,18.71-7.42-.4-15.07-4.57-18.81-10.89-1.88-3.16-2.79-6.78-3.24-11.61a22.59,22.59,0,0,1,5.55-17.66c5.89-6.43,15.58-8.92,25.12-5.21,10.64,4.13,15.77,13.52,14,26.66ZM172.6,37.62c-8.63,9-12.76,21.57-12.54,34.08s4.79,24.92,13.57,33.47a48.54,48.54,0,0,0,29.49,13.27c19.72,1.51,41.68-3.89,51.51-22.84,4.18-8.06,6.88-18.73,6.27-27.7-1.13-16.62-8.88-30.8-24.56-38.36-9.33-4.5-17.08-5.6-25.9-5.67-14.2-.11-27.9,3.42-37.84,13.75Z"/><path class="cls-2" d="M38.14,192.06a11.18,11.18,0,0,1-5-1.07,8.29,8.29,0,0,1-3.42-3,7.91,7.91,0,0,1-1.24-4.37,7.83,7.83,0,0,1,1.24-4.36,8.34,8.34,0,0,1,3.42-3,11.18,11.18,0,0,1,5-1.07,9.64,9.64,0,0,1,5.09,1.28A6.67,6.67,0,0,1,46.15,180l-5.21,2.56a3,3,0,0,0-2.82-2.14,2.61,2.61,0,0,0-2,.83,3.29,3.29,0,0,0-.79,2.36,3.32,3.32,0,0,0,.79,2.38,2.61,2.61,0,0,0,2,.83,3,3,0,0,0,2.82-2.14l5.21,2.56a6.63,6.63,0,0,1-2.92,3.54,9.64,9.64,0,0,1-5.09,1.28Zm18,0A10.63,10.63,0,0,1,51.28,191a8.32,8.32,0,0,1-3.37-3,8.4,8.4,0,0,1,0-8.72,8.32,8.32,0,0,1,3.37-3,11.69,11.69,0,0,1,9.77,0,8.17,8.17,0,0,1,3.36,3,8.46,8.46,0,0,1,0,8.72,8.17,8.17,0,0,1-3.36,3,10.67,10.67,0,0,1-4.9,1.09Zm0-5.24a2.43,2.43,0,0,0,1.91-.85,4.13,4.13,0,0,0,0-4.72,2.48,2.48,0,0,0-1.91-.83,2.44,2.44,0,0,0-1.9.83,4.09,4.09,0,0,0,0,4.72,2.39,2.39,0,0,0,1.9.85ZM79,175.18A6.56,6.56,0,0,1,83.87,177q1.83,1.81,1.83,5.47v9.29H79v-8.12c0-1.87-.67-2.8-2-2.8a2.33,2.33,0,0,0-1.83.79,3.69,3.69,0,0,0-.7,2.48v7.65H67.73V175.48h6.4v1.61a6.15,6.15,0,0,1,2.2-1.43,7.5,7.5,0,0,1,2.71-.48Zm27.2,8.43c0,.1,0,.62-.09,1.57H94.84A2.78,2.78,0,0,0,96,186.6a4.14,4.14,0,0,0,2.09.49,5.25,5.25,0,0,0,1.8-.27,6.74,6.74,0,0,0,1.59-.92l3.51,3.54q-2.38,2.63-7.11,2.62A11.62,11.62,0,0,1,92.73,191a8.15,8.15,0,0,1-3.45-3,7.92,7.92,0,0,1-1.22-4.34,8,8,0,0,1,1.2-4.36,8.32,8.32,0,0,1,3.3-3,10.31,10.31,0,0,1,4.72-1.07,10.18,10.18,0,0,1,4.51,1,7.74,7.74,0,0,1,3.25,2.88,8.38,8.38,0,0,1,1.2,4.56Zm-8.9-3.84a2.58,2.58,0,0,0-1.72.56,2.68,2.68,0,0,0-.9,1.61H100a2.73,2.73,0,0,0-.89-1.59,2.57,2.57,0,0,0-1.73-.58Zm19.76,12.29a11.18,11.18,0,0,1-4.95-1.07,8.29,8.29,0,0,1-3.42-3,7.91,7.91,0,0,1-1.24-4.37,7.83,7.83,0,0,1,1.24-4.36,8.34,8.34,0,0,1,3.42-3,11.18,11.18,0,0,1,4.95-1.07,9.66,9.66,0,0,1,5.09,1.28,6.71,6.71,0,0,1,2.92,3.54l-5.21,2.56a3.05,3.05,0,0,0-2.83-2.14,2.64,2.64,0,0,0-2,.83,3.33,3.33,0,0,0-.78,2.36,3.36,3.36,0,0,0,.78,2.38,2.64,2.64,0,0,0,2,.83,3,3,0,0,0,2.83-2.14l5.21,2.56a6.67,6.67,0,0,1-2.92,3.54,9.66,9.66,0,0,1-5.09,1.28ZM139,191.2a8.45,8.45,0,0,1-4.14.86,7.65,7.65,0,0,1-5.27-1.65,6.32,6.32,0,0,1-1.84-5v-4.17h-2.23v-4.91h2.23v-4.55h6.73v4.55h3.33v4.91h-3.33v4.11a1.62,1.62,0,0,0,.38,1.16,1.32,1.32,0,0,0,1,.42,2.6,2.6,0,0,0,1.52-.45L139,191.2Zm9-16c2.85,0,5,.64,6.54,1.92s2.27,3.25,2.27,5.91v8.75H150.5v-2.14c-.78,1.62-2.31,2.44-4.62,2.44a7.48,7.48,0,0,1-3.29-.67,4.87,4.87,0,0,1-2.05-1.82,4.79,4.79,0,0,1-.7-2.57,4.14,4.14,0,0,1,1.85-3.66,10,10,0,0,1,5.59-1.25H150c-.22-1.27-1.24-1.91-3.06-1.91a7.68,7.68,0,0,0-2.24.35,6.19,6.19,0,0,0-1.93.93L140.62,177a11.69,11.69,0,0,1,3.37-1.36,16.75,16.75,0,0,1,3.95-.49Zm0,12.83a2.15,2.15,0,0,0,2.11-1.55v-1.13h-1.67c-1.37,0-2,.46-2,1.37a1.18,1.18,0,0,0,.43.94,1.74,1.74,0,0,0,1.18.37Zm33.3-12.83a6.29,6.29,0,0,1,4.72,1.82q1.77,1.81,1.77,5.47v9.29H181v-8.12c0-1.87-.6-2.8-1.81-2.8a1.9,1.9,0,0,0-1.54.71,3.62,3.62,0,0,0-.58,2.26v7.95h-6.72v-8.12c0-1.87-.61-2.8-1.82-2.8a1.9,1.9,0,0,0-1.53.71,3.56,3.56,0,0,0-.58,2.26v7.95h-6.73V175.48h6.4V177a6.26,6.26,0,0,1,4.62-1.82,7,7,0,0,1,2.94.61,5.18,5.18,0,0,1,2.14,1.86,6.71,6.71,0,0,1,2.39-1.83,7.35,7.35,0,0,1,3.06-.64Zm18.3,16.88a10.59,10.59,0,0,1-4.86-1.09,8.29,8.29,0,0,1-3.38-3,8.4,8.4,0,0,1,0-8.72,8.29,8.29,0,0,1,3.38-3,11.66,11.66,0,0,1,9.76,0,8.17,8.17,0,0,1,3.36,3,8.46,8.46,0,0,1,0,8.72,8.17,8.17,0,0,1-3.36,3,10.67,10.67,0,0,1-4.9,1.09Zm0-5.24a2.41,2.41,0,0,0,1.91-.85,4.13,4.13,0,0,0,0-4.72,2.6,2.6,0,0,0-3.81,0,4.13,4.13,0,0,0,0,4.72,2.41,2.41,0,0,0,1.9.85Zm18,5.24a18.89,18.89,0,0,1-4.11-.45,11.76,11.76,0,0,1-3.27-1.16l1.85-4.43a9.86,9.86,0,0,0,2.67,1.07,12.35,12.35,0,0,0,3,.38,4.69,4.69,0,0,0,1.62-.19.62.62,0,0,0,.46-.58c0-.26-.19-.44-.58-.53a15,15,0,0,0-1.89-.3,24.67,24.67,0,0,1-3.39-.61,5.28,5.28,0,0,1-2.45-1.45,4.14,4.14,0,0,1-1.06-3.06,4.58,4.58,0,0,1,1-2.83,6.41,6.41,0,0,1,2.84-2,12.33,12.33,0,0,1,4.54-.75,18.91,18.91,0,0,1,3.62.35,10.93,10.93,0,0,1,3,1L223.44,181a9.44,9.44,0,0,0-4.7-1.19c-1.47,0-2.2.25-2.2.77,0,.26.2.44.59.55a14.14,14.14,0,0,0,1.88.31,22.84,22.84,0,0,1,3.38.63,5.46,5.46,0,0,1,2.44,1.46,4.18,4.18,0,0,1,1,3.06,4.43,4.43,0,0,1-.95,2.77,6.37,6.37,0,0,1-2.86,2,12.58,12.58,0,0,1-4.61.75Zm36.7-8.45c0,.1,0,.62-.09,1.57H242.76A2.73,2.73,0,0,0,244,186.6a4.13,4.13,0,0,0,2.08.49,5.17,5.17,0,0,0,1.8-.27,6.59,6.59,0,0,0,1.6-.92l3.51,3.54q-2.38,2.63-7.12,2.62a11.57,11.57,0,0,1-5.17-1.09,8.24,8.24,0,0,1-3.46-3,8.39,8.39,0,0,1,0-8.7,8.26,8.26,0,0,1,3.3-3,10.86,10.86,0,0,1,9.23-.08,7.65,7.65,0,0,1,3.24,2.88,8.3,8.3,0,0,1,1.21,4.56Zm-8.9-3.84a2.61,2.61,0,0,0-1.73.56,2.72,2.72,0,0,0-.89,1.61h5.24a2.73,2.73,0,0,0-.89-1.59,2.59,2.59,0,0,0-1.73-.58Zm22.32-4.59a6.59,6.59,0,0,1,4.84,1.82q1.83,1.81,1.83,5.47v9.29h-6.73v-8.12c0-1.87-.66-2.8-2-2.8a2.3,2.3,0,0,0-1.83.79,3.64,3.64,0,0,0-.7,2.48v7.65h-6.73V175.48h6.4v1.61a6.15,6.15,0,0,1,2.2-1.43,7.54,7.54,0,0,1,2.71-.48Zm36.7.3v13q0,4.64-2.58,7c-1.71,1.55-4.16,2.33-7.33,2.33a18.89,18.89,0,0,1-4.56-.52,11.61,11.61,0,0,1-3.6-1.5l2.26-4.59a7.85,7.85,0,0,0,2.41,1.17,9.87,9.87,0,0,0,2.8.44,4.26,4.26,0,0,0,2.95-.86,3.32,3.32,0,0,0,.92-2.53v-.3a5.67,5.67,0,0,1-4.49,1.73,8,8,0,0,1-3.89-1,7.34,7.34,0,0,1-2.87-2.77,8.45,8.45,0,0,1,0-8.23,7.43,7.43,0,0,1,2.87-2.75,8.16,8.16,0,0,1,3.89-1,5.45,5.45,0,0,1,4.82,2.15v-1.85Zm-9.44,10.15a2.77,2.77,0,0,0,2-.73,2.45,2.45,0,0,0,.79-1.89,2.38,2.38,0,0,0-.79-1.87,2.81,2.81,0,0,0-2-.72,2.88,2.88,0,0,0-2,.72,2.63,2.63,0,0,0,0,3.76,2.83,2.83,0,0,0,2,.73Zm18.81-8.39a6.61,6.61,0,0,1,5.27-2.06v6a10.15,10.15,0,0,0-1.49-.12q-3.45,0-3.45,3.51v7.23h-6.73V175.48h6.4v1.76ZM328,175.18q4.29,0,6.55,1.92c1.5,1.28,2.26,3.25,2.26,5.91v8.75h-6.25v-2.14c-.78,1.62-2.31,2.44-4.62,2.44a7.4,7.4,0,0,1-3.28-.67,4.72,4.72,0,0,1-2.76-4.39,4.14,4.14,0,0,1,1.85-3.66,10,10,0,0,1,5.59-1.25H330c-.22-1.27-1.24-1.91-3.06-1.91a7.68,7.68,0,0,0-2.24.35,6.3,6.3,0,0,0-1.93.93L320.65,177a11.81,11.81,0,0,1,3.37-1.36,16.75,16.75,0,0,1,4-.49Zm0,12.83a2.22,2.22,0,0,0,1.28-.39,2.17,2.17,0,0,0,.83-1.16v-1.13h-1.67c-1.36,0-2.05.46-2.05,1.37a1.18,1.18,0,0,0,.43.94,1.74,1.74,0,0,0,1.18.37ZM351,175.18a6.57,6.57,0,0,1,4.84,1.82q1.83,1.81,1.83,5.47v9.29h-6.73v-8.12c0-1.87-.66-2.8-2-2.8a2.33,2.33,0,0,0-1.83.79,3.64,3.64,0,0,0-.7,2.48v7.65h-6.73V175.48h6.4v1.61a6.19,6.19,0,0,1,2.21-1.43,7.44,7.44,0,0,1,2.7-.48Zm27.89-5.5v22.08h-6.4v-1.34a5.68,5.68,0,0,1-4.46,1.64,7.79,7.79,0,0,1-3.95-1,7.33,7.33,0,0,1-2.85-3,9.11,9.11,0,0,1-1.06-4.46,9,9,0,0,1,1.06-4.45,7.37,7.37,0,0,1,2.85-2.95,7.89,7.89,0,0,1,3.95-1,5.67,5.67,0,0,1,4.13,1.4v-6.9Zm-9.26,17.14a2.41,2.41,0,0,0,1.91-.85,4.13,4.13,0,0,0,0-4.72,2.6,2.6,0,0,0-3.81,0,4.13,4.13,0,0,0,0,4.72,2.41,2.41,0,0,0,1.9.85Zm29.56-3.21c0,.1,0,.62-.09,1.57H387.79A2.73,2.73,0,0,0,389,186.6a4.13,4.13,0,0,0,2.08.49,5.17,5.17,0,0,0,1.8-.27,6.59,6.59,0,0,0,1.6-.92l3.51,3.54q-2.39,2.63-7.11,2.62a11.62,11.62,0,0,1-5.18-1.09,8.24,8.24,0,0,1-3.46-3,8.39,8.39,0,0,1,0-8.7,8.26,8.26,0,0,1,3.3-3,10.86,10.86,0,0,1,9.23-.08,7.65,7.65,0,0,1,3.24,2.88,8.3,8.3,0,0,1,1.21,4.56Zm-8.9-3.84a2.63,2.63,0,0,0-1.73.56,2.72,2.72,0,0,0-.89,1.61h5.24a2.73,2.73,0,0,0-.89-1.59,2.59,2.59,0,0,0-1.73-.58Zm14,12.29a3.84,3.84,0,0,1-2.81-1.09,3.68,3.68,0,0,1-1.12-2.78,3.59,3.59,0,0,1,1.12-2.75,4.25,4.25,0,0,1,5.62,0,3.62,3.62,0,0,1,1.12,2.75,3.72,3.72,0,0,1-1.12,2.78,3.84,3.84,0,0,1-2.81,1.09Z"/></g></g></svg>