<?xml version="1.0" encoding="UTF-8" standalone="no"?>
<svg
   xmlns:dc="http://purl.org/dc/elements/1.1/"
   xmlns:cc="http://creativecommons.org/ns#"
   xmlns:rdf="http://www.w3.org/1999/02/22-rdf-syntax-ns#"
   xmlns:svg="http://www.w3.org/2000/svg"
   xmlns="http://www.w3.org/2000/svg"
   id="svg5570"
   version="1.1"
   viewBox="0 0 512 512"
   height="512mm"
   width="512mm">
  <defs
     id="defs5564">
    <clipPath
       id="clipPath416"
       clipPathUnits="userSpaceOnUse">
      <path
         id="path414"
         d="m 106.521,505.844 h 53.4 v -53.401 h -53.4 z" />
    </clipPath>
    <clipPath
       id="clipPath432"
       clipPathUnits="userSpaceOnUse">
      <path
         id="path430"
         d="m 107.103,505.263 h 53.4 v -53.401 h -53.4 z" />
    </clipPath>
    <clipPath
       id="clipPath452"
       clipPathUnits="userSpaceOnUse">
      <path
         id="path450"
         d="m 121.394,490.97 h 53.401 v -53.4 h -53.401 z" />
    </clipPath>
    <clipPath
       id="clipPath468"
       clipPathUnits="userSpaceOnUse">
      <path
         id="path466"
         d="m 121.976,490.39 h 53.4 v -53.401 h -53.4 z" />
    </clipPath>
    <clipPath
       id="clipPath488"
       clipPathUnits="userSpaceOnUse">
      <path
         id="path486"
         d="M 252.477,497.736 H 303.71 V 458.461 H 252.477 Z" />
    </clipPath>
    <clipPath
       id="clipPath516"
       clipPathUnits="userSpaceOnUse">
      <path
         id="path514"
         d="m 260.136,464.691 h 34.022 v -18.162 h -34.022 z" />
    </clipPath>
  </defs>
  <metadata
     id="metadata5567">
    <rdf:RDF>
      <cc:Work
         rdf:about="">
        <dc:format>image/svg+xml</dc:format>
        <dc:type
           rdf:resource="http://purl.org/dc/dcmitype/StillImage" />
        <dc:title></dc:title>
      </cc:Work>
    </rdf:RDF>
  </metadata>
  <g
     transform="translate(0,215)"
     id="layer1">
    <g
       style="stroke-width:0.05060491"
       id="g6171"
       transform="matrix(6.9712169,0,0,-6.9712169,-724.48669,3324.4963)">
      <g
         style="stroke-width:0.00247987"
         id="g6195"
         transform="matrix(1.0326564,0,0,1.0326564,-139.08442,-12.279072)">
        <g
           style="stroke-width:0.00247987"
           id="g478"
           transform="translate(276.9971,437.8359)">
          <path
             d="m 0,0 c 1.13,-1.129 2.961,-1.129 4.089,0.001 l 21.775,21.776 c 1.131,1.127 1.131,2.959 0.002,4.089 L -7.321,59.053 C -7.867,59.6 -8.61,59.904 -9.383,59.9 l -11.959,-0.072 c -0.76,-0.005 -1.49,-0.308 -2.027,-0.847 L -39.13,43.221 c -1.13,-1.13 -1.13,-2.961 0.001,-4.09"
             style="fill:#dce2e9;fill-opacity:1;fill-rule:nonzero;stroke:none;stroke-width:0.00247987"
             id="path480" />
        </g>
        <g
           style="stroke-width:0.00247987"
           id="g482">
          <g
             style="stroke-width:0.00247987"
             id="g484" />
          <g
             style="stroke-width:0.00247987"
             id="g496">
            <g
               style="stroke-width:0.00247987"
               clip-path="url(#clipPath488)"
               id="g494">
              <g
                 style="stroke-width:0.00247987"
                 transform="translate(302.8633,463.7021)"
                 id="g492">
                <path
                   d="m 0,0 -33.188,33.187 c -0.545,0.546 -1.289,0.851 -2.061,0.847 l -11.959,-0.072 c -0.76,-0.005 -1.49,-0.309 -2.027,-0.847 l -1.152,-1.151 c 0.538,0.537 1.266,0.843 2.028,0.848 l 11.958,0.07 c 0.773,0.006 1.515,-0.299 2.062,-0.846 L -1.152,-1.151 c 1.13,-1.129 1.131,-2.961 0,-4.09 l 1.15,1.152 C 1.129,-2.962 1.129,-1.13 0,0"
                   style="fill:#dce2e9;fill-opacity:1;fill-rule:nonzero;stroke:none;stroke-width:0.00247987"
                   id="path490" />
              </g>
            </g>
          </g>
        </g>
        <g
           style="stroke-width:0.00247987"
           id="g498"
           transform="translate(278.1494,438.9883)">
          <path
             d="m 0,0 -39.131,39.129 c -1.13,1.131 -1.13,2.961 0,4.09 l -1.151,-1.151 c -1.13,-1.13 -1.13,-2.961 10e-4,-4.089 L -1.152,-1.152 c 1.13,-1.129 2.961,-1.129 4.089,10e-4 l 1.153,1.15 C 2.959,-1.129 1.129,-1.129 0,0"
             style="fill:#a9afbb;fill-opacity:1;fill-rule:nonzero;stroke:none;stroke-width:0.00247987"
             id="path500" />
        </g>
        <g
           style="stroke-width:0.00247987"
           id="g502"
           transform="translate(259.9639,461.7559)">
          <path
             d="M 0,0 C -1.742,1.742 -1.742,4.574 -0.002,6.316 L 12.664,18.98 c 1.74,1.743 4.574,1.741 6.315,0 L 34.364,3.596 c 1.741,-1.742 1.742,-4.575 0.001,-6.317 L 21.699,-15.385 c -1.74,-1.741 -4.573,-1.741 -6.314,0 z"
             style="fill:#5a6271;fill-opacity:1;fill-rule:nonzero;stroke:none;stroke-width:0.00247987"
             id="path504" />
        </g>
        <g
           style="stroke-width:0.00247987"
           id="g506"
           transform="translate(293.2969,460.0664)">
          <path
             d="M 0,0 C 1.118,1.118 1.158,2.898 0.144,4.079 L 0.16,4.096 0,4.254 -3.729,7.984 -15.384,19.639 c -1.174,1.173 -3.082,1.173 -4.256,0.002 L -32.303,6.975 c -1.173,-1.173 -1.173,-3.08 -0.001,-4.254 l 15.545,-15.545 0.016,0.016 c 1.18,-1.014 2.961,-0.975 4.08,0.142 z"
             style="fill:#ffc52f;fill-opacity:1;fill-rule:nonzero;stroke:none;stroke-width:0.00247987"
             id="path508" />
        </g>
        <g
           style="stroke-width:0.00247987"
           id="g510">
          <g
             style="stroke-width:0.00247987"
             id="g512" />
          <g
             style="stroke-width:0.00247987"
             id="g524">
            <g
               clip-path="url(#clipPath516)"
               id="g522"
               style="opacity:0.80000299;stroke-width:0.00247987">
              <g
                 style="stroke-width:0.00247987"
                 transform="translate(260.9932,462.7871)"
                 id="g520">
                <path
                   d="m 0,0 15.545,-15.545 0.016,0.017 c 1.179,-1.015 2.96,-0.976 4.08,0.141 l 12.663,12.666 c 0.644,0.645 0.918,1.508 0.851,2.35 L -0.857,1.904 C -0.807,1.21 -0.529,0.529 0,0"
                   style="fill:#ffc52f;fill-opacity:1;fill-rule:nonzero;stroke:none;stroke-width:0.00247987"
                   id="path518" />
              </g>
            </g>
          </g>
        </g>
        <g
           style="stroke-width:0.00247987"
           id="g526"
           transform="translate(281.4707,459.9512)">
          <path
             d="m 0,0 3.548,3.55 5.856,-5.857 -3.548,-3.55 z m 1.574,-10.137 -5.855,5.856 3.548,3.549 5.857,-5.858 z m -2.411,-2.414 c -1.174,-1.171 -3.082,-1.171 -4.256,0.002 l -3.728,3.729 3.806,3.805 5.856,-5.856 z M 8.097,8.1 11.826,4.369 C 13,3.197 12.999,1.288 11.826,0.115 L 10.138,-1.573 4.28,4.283 Z m -17.651,-16.188 -6.57,6.57 13.103,13.102 -6.48,6.481 1.688,1.691 c 1.173,1.171 3.082,1.172 4.255,-0.002 L 7.364,8.832 Z m -4.23,21.871 3.55,3.549 5.747,-5.747 -3.549,-3.548 z m 5.015,-6.48 -3.548,-3.549 -5.747,5.748 3.547,3.549 z m -8.087,-8.088 -3.622,3.621 c -1.171,1.174 -1.171,3.081 0.001,4.254 l 1.679,1.679 5.748,-5.748 z M 12.857,5.4 -2.528,20.785 c -1.741,1.74 -4.575,1.742 -6.315,0 L -21.509,8.121 c -1.74,-1.742 -1.74,-4.574 0.002,-6.316 L -6.122,-13.58 c 1.741,-1.741 4.574,-1.741 6.314,0 L 12.858,-0.916 C 14.6,0.826 14.599,3.658 12.857,5.4"
             style="fill:#5a6271;fill-opacity:1;fill-rule:nonzero;stroke:none;stroke-width:0.00247987"
             id="path528" />
        </g>
      </g>
    </g>
  </g>
</svg>
