<svg id="Capa_1" data-name="Capa 1" xmlns="http://www.w3.org/2000/svg" viewBox="0 0 1370 1175"><defs><style>.cls-1{fill:#eeeded;}</style></defs><title>back</title><path class="cls-1" d="M1043.08,837.68A111.75,111.75,0,0,0,886.27,818q-15,11.64-29.94,21.23c-34.82,20.2-106.13,54.26-193.21,55.88C576,893.27,504.81,859,470,838.75q-14.93-9.64-29.89-21.3A111.75,111.75,0,1,0,302.61,993.63q5.82,4.54,11.7,8.91l-.63.84c3.19,2.39,15.39,11.32,35.18,23.24,94.34,61.3,197.52,92.56,305,92.69,3,0,6-.08,9-.13s6,.15,9,.15c107.44.13,210.69-30.88,305.18-91.95,19.83-11.87,32-20.78,35.23-23.16l-.62-.84q5.9-4.36,11.73-8.88A111.76,111.76,0,0,0,1043.08,837.68Z"/><path class="cls-1" d="M836,415.9C835.84,518.3,758.42,601.22,663,601.11S490.42,517.89,490.54,415.49s77.55-185.32,172.94-185.21S836.09,313.5,836,415.9ZM663.69,49.1C401.23,57.25,272.35,213.52,272.11,416.92S451,785.42,662.81,785.67s391.34-164.42,391.58-367.81S889.86,42.08,663.69,49.1Z"/></svg>