<svg xmlns="http://www.w3.org/2000/svg" xmlns:xlink="http://www.w3.org/1999/xlink" viewBox="0 0 149.66 149.66"><defs><style>.cls-1{fill:url(#Degradado_sin_nombre_14);}.cls-2{fill:url(#Degradado_sin_nombre_14-2);}.cls-3{fill:url(#Degradado_sin_nombre_14-3);}.cls-4{fill:url(#Degradado_sin_nombre_14-4);}.cls-5{fill:url(#Degradado_sin_nombre_14-5);}.cls-6{fill:url(#Degradado_sin_nombre_14-6);}.cls-7{fill:url(#Degradado_sin_nombre_14-7);}.cls-8{fill:url(#Degradado_sin_nombre_14-8);}.cls-9{fill:url(#Degradado_sin_nombre_14-9);}.cls-10{fill:url(#Degradado_sin_nombre_14-10);}.cls-11{fill:url(#Degradado_sin_nombre_14-11);}.cls-12{fill:url(#Degradado_sin_nombre_14-12);}</style><linearGradient id="Degradado_sin_nombre_14" x1="6.93" y1="24.84" x2="42.75" y2="24.84" gradientUnits="userSpaceOnUse"><stop offset="0" stop-color="#fff"/><stop offset="1" stop-color="#dc4852"/></linearGradient><linearGradient id="Degradado_sin_nombre_14-2" x1="0.03" y1="34.21" x2="68.39" y2="34.21" xlink:href="#Degradado_sin_nombre_14"/><linearGradient id="Degradado_sin_nombre_14-3" x1="0" y1="43.25" x2="86.5" y2="43.25" xlink:href="#Degradado_sin_nombre_14"/><linearGradient id="Degradado_sin_nombre_14-4" x1="2.99" y1="52.17" x2="101.34" y2="52.17" xlink:href="#Degradado_sin_nombre_14"/><linearGradient id="Degradado_sin_nombre_14-5" x1="8.46" y1="61.2" x2="113.93" y2="61.2" xlink:href="#Degradado_sin_nombre_14"/><linearGradient id="Degradado_sin_nombre_14-6" x1="15.87" y1="70.28" x2="124.69" y2="70.28" xlink:href="#Degradado_sin_nombre_14"/><linearGradient id="Degradado_sin_nombre_14-7" x1="24.97" y1="79.38" x2="133.79" y2="79.38" xlink:href="#Degradado_sin_nombre_14"/><linearGradient id="Degradado_sin_nombre_14-8" x1="35.73" y1="88.46" x2="141.2" y2="88.46" xlink:href="#Degradado_sin_nombre_14"/><linearGradient id="Degradado_sin_nombre_14-9" x1="48.32" y1="97.49" x2="146.67" y2="97.49" xlink:href="#Degradado_sin_nombre_14"/><linearGradient id="Degradado_sin_nombre_14-10" x1="63.16" y1="106.41" x2="149.66" y2="106.41" xlink:href="#Degradado_sin_nombre_14"/><linearGradient id="Degradado_sin_nombre_14-11" x1="81.27" y1="115.45" x2="149.63" y2="115.45" xlink:href="#Degradado_sin_nombre_14"/><linearGradient id="Degradado_sin_nombre_14-12" x1="106.91" y1="124.82" x2="142.73" y2="124.82" xlink:href="#Degradado_sin_nombre_14"/></defs><title>circle_pink</title><g id="Layer_2" data-name="Layer 2"><g id="Capa_1" data-name="Capa 1"><path class="cls-1" d="M21.74,21.74a74.77,74.77,0,0,0-14.81,21L42.75,6.93A74.77,74.77,0,0,0,21.74,21.74Z"/><path class="cls-2" d="M61.23,1,1,61.23a72,72,0,0,0-1,7.16L68.39,0A72,72,0,0,0,61.23,1Z"/><path class="cls-3" d="M81,0,0,81q.22,2.78.66,5.54L86.5.66Q83.74.22,81,0Z"/><path class="cls-4" d="M96.71,3,3,96.71q.72,2.34,1.57,4.63L101.34,4.56Q99,3.71,96.71,3Z"/><path class="cls-5" d="M110,8.46,8.46,110c.71,1.34,1.46,2.65,2.26,4L113.93,10.72C112.63,9.92,111.32,9.17,110,8.46Z"/><path class="cls-6" d="M121.32,15.87,15.87,121.32c.9,1.14,1.85,2.27,2.83,3.37l106-106C123.59,17.72,122.46,16.77,121.32,15.87Z"/><path class="cls-7" d="M131,25,25,131c1.1,1,2.22,1.93,3.37,2.83L133.79,28.34C132.89,27.19,131.94,26.07,131,25Z"/><path class="cls-8" d="M138.94,35.73,35.73,138.94c1.3.8,2.61,1.55,4,2.26L141.2,39.68C140.49,38.34,139.74,37,138.94,35.73Z"/><path class="cls-9" d="M145.1,48.32,48.32,145.1q2.3.85,4.63,1.57L146.67,53Q146,50.61,145.1,48.32Z"/><path class="cls-10" d="M149,63.16,63.16,149q2.76.44,5.54.66l81-81Q149.44,65.92,149,63.16Z"/><path class="cls-11" d="M149.63,81.27,81.27,149.63c2.4-.2,4.78-.52,7.16-1l60.24-60.24C149.11,86.05,149.43,83.67,149.63,81.27Z"/><path class="cls-12" d="M106.91,142.73a75.36,75.36,0,0,0,35.82-35.82Z"/></g></g></svg>