<svg id="Capa_1" data-name="Capa 1" xmlns="http://www.w3.org/2000/svg" viewBox="0 0 350 260"><defs><style>.cls-1{fill:#fe5b6b;}</style></defs><title>dots</title><circle class="cls-1" cx="46.02" cy="69.48" r="4.53"/><circle class="cls-1" cx="95.22" cy="69.48" r="4.53"/><circle class="cls-1" cx="144.42" cy="69.48" r="4.53"/><circle class="cls-1" cx="193.62" cy="69.48" r="4.53"/><circle class="cls-1" cx="242.83" cy="69.48" r="4.53"/><circle class="cls-1" cx="292.03" cy="69.48" r="4.53"/><circle class="cls-1" cx="46.02" cy="103.58" r="4.53"/><circle class="cls-1" cx="95.22" cy="103.58" r="4.53"/><circle class="cls-1" cx="144.42" cy="103.58" r="4.53"/><circle class="cls-1" cx="193.62" cy="103.58" r="4.53"/><circle class="cls-1" cx="242.83" cy="103.58" r="4.53"/><circle class="cls-1" cx="292.03" cy="103.58" r="4.53"/><circle class="cls-1" cx="46.02" cy="137.69" r="4.53"/><circle class="cls-1" cx="95.22" cy="137.69" r="4.53"/><circle class="cls-1" cx="144.42" cy="137.69" r="4.53"/><circle class="cls-1" cx="193.62" cy="137.69" r="4.53"/><circle class="cls-1" cx="242.83" cy="137.69" r="4.53"/><circle class="cls-1" cx="292.03" cy="137.69" r="4.53"/><circle class="cls-1" cx="46.02" cy="171.8" r="4.53"/><circle class="cls-1" cx="95.22" cy="171.8" r="4.53"/><circle class="cls-1" cx="144.42" cy="171.8" r="4.53"/><circle class="cls-1" cx="193.62" cy="171.8" r="4.53"/><circle class="cls-1" cx="242.83" cy="171.8" r="4.53"/><circle class="cls-1" cx="292.03" cy="171.8" r="4.53"/><circle class="cls-1" cx="46.02" cy="205.91" r="4.53"/><circle class="cls-1" cx="95.22" cy="205.91" r="4.53"/><circle class="cls-1" cx="144.42" cy="205.91" r="4.53"/><circle class="cls-1" cx="193.62" cy="205.91" r="4.53"/><circle class="cls-1" cx="242.83" cy="205.91" r="4.53"/><circle class="cls-1" cx="292.03" cy="205.91" r="4.53"/></svg>