<svg xmlns="http://www.w3.org/2000/svg" viewBox="0 0 255.07 145.49"><defs><style>.cls-1{fill:#fe5b6b;}</style></defs><title>points_bg</title><g id="Layer_2" data-name="Layer 2"><g id="Capa_1" data-name="Capa 1"><circle class="cls-1" cx="4.53" cy="4.53" r="4.53"/><circle class="cls-1" cx="53.73" cy="4.53" r="4.53"/><circle class="cls-1" cx="102.93" cy="4.53" r="4.53"/><circle class="cls-1" cx="152.13" cy="4.53" r="4.53"/><circle class="cls-1" cx="201.34" cy="4.53" r="4.53"/><circle class="cls-1" cx="250.54" cy="4.53" r="4.53"/><circle class="cls-1" cx="4.53" cy="38.64" r="4.53"/><circle class="cls-1" cx="53.73" cy="38.64" r="4.53"/><circle class="cls-1" cx="102.93" cy="38.64" r="4.53"/><circle class="cls-1" cx="152.13" cy="38.64" r="4.53"/><circle class="cls-1" cx="201.34" cy="38.64" r="4.53"/><circle class="cls-1" cx="250.54" cy="38.64" r="4.53"/><circle class="cls-1" cx="4.53" cy="72.75" r="4.53"/><circle class="cls-1" cx="53.73" cy="72.75" r="4.53"/><circle class="cls-1" cx="102.93" cy="72.75" r="4.53"/><circle class="cls-1" cx="152.13" cy="72.75" r="4.53"/><circle class="cls-1" cx="201.34" cy="72.75" r="4.53"/><circle class="cls-1" cx="250.54" cy="72.75" r="4.53"/><circle class="cls-1" cx="4.53" cy="106.86" r="4.53"/><circle class="cls-1" cx="53.73" cy="106.86" r="4.53"/><circle class="cls-1" cx="102.93" cy="106.86" r="4.53"/><circle class="cls-1" cx="152.13" cy="106.86" r="4.53"/><circle class="cls-1" cx="201.34" cy="106.86" r="4.53"/><circle class="cls-1" cx="250.54" cy="106.86" r="4.53"/><circle class="cls-1" cx="4.53" cy="140.96" r="4.53"/><circle class="cls-1" cx="53.73" cy="140.96" r="4.53"/><circle class="cls-1" cx="102.93" cy="140.96" r="4.53"/><circle class="cls-1" cx="152.13" cy="140.96" r="4.53"/><circle class="cls-1" cx="201.34" cy="140.96" r="4.53"/><circle class="cls-1" cx="250.54" cy="140.96" r="4.53"/></g></g></svg>